<svg xmlns="http://www.w3.org/2000/svg" viewBox="0 0 30 30">
  <defs>
    <style>
      .icon_BTC_a {
        fill: none;
      }

      .icon_BTC_b {
        fill: #fff;
      }
    </style>
  </defs>
  <rect class="icon_BTC_a" width="30" height="30" />
  <path class="icon_BTC_b" d="M6.71,16.646h0l-1.525-.359.623-2.36c-.435-.1-.845-.2-1.216-.3L3.966,16l-1.525-.36.632-2.4-.3-.074-.1-.025-.012,0c-.221-.054-.449-.111-.674-.164L0,12.51l.758-1.651.061.015c.658.164,1.01.247,1.045.247a.9.9,0,0,0,.184.022.552.552,0,0,0,.517-.365L3.564,7l.161.038a1.525,1.525,0,0,0-.158-.048l.712-2.7c.018-.3-.091-.692-.711-.839-.008-.017-.6-.15-1.109-.26l.406-1.541,2.105.5,0,.007c.285.067.57.129.913.2l.061.014L6.567,0,8.093.359,7.48,2.681l.085.018h.007c.374.081.761.166,1.131.253L9.311.646l1.526.36-.626,2.369c2.325.757,3.3,1.811,3.059,3.317a2.356,2.356,0,0,1-1.948,2.118,2.477,2.477,0,0,1,1.4,3.5A3.182,3.182,0,0,1,9.338,14.46H9.327a11.415,11.415,0,0,1-1.985-.207L6.71,16.645ZM5.926,8.717l-.838,3.175c.083.02.182.044.291.072a11.122,11.122,0,0,0,2.528.407c1.06,0,1.692-.356,1.877-1.059a1.232,1.232,0,0,0-.13-.995C9.081,9.389,7.272,9.005,6.3,8.8,6.148,8.767,6.026,8.741,5.926,8.717ZM7.069,4.385l-.76,2.88.252.062a8.671,8.671,0,0,0,2.031.328c.932,0,1.492-.333,1.665-.989a1.168,1.168,0,0,0-.119-.945c-.491-.794-1.962-1.1-2.752-1.268C7.262,4.428,7.156,4.405,7.069,4.385Z"
    transform="translate(8.279 6.682)" />
</svg>
