<svg xmlns="http://www.w3.org/2000/svg" viewBox="0 0 30 30">
  <defs>
    <style>
      .icon_DCR_a {
        fill: none;
      }

      .icon_DCR_b {
        fill: #fff;
      }

      .icon_DCR_c {
        fill: rgba(255, 255, 255, 0.7);
      }
    </style>
  </defs>
  <rect class="icon_DCR_a" width="30" height="30" />
  <g transform="translate(6 8)">
    <path class="icon_DCR_b" d="M0,8.08H4.408A2.9,2.9,0,0,0,7.387,5.266a2.87,2.87,0,0,0-2.962-2.8H3.014L0,0H4.408A5.413,5.413,0,0,1,10,5.249a5.26,5.26,0,0,1-3.5,4.9L9.982,13H6.01Z"
      transform="translate(8)" />
    <path class="icon_DCR_c" d="M10,4.924H5.6A2.893,2.893,0,0,0,2.626,7.731,2.882,2.882,0,0,0,5.6,10.538H7.009L10,13H5.6A5.449,5.449,0,0,1,0,7.764,5.252,5.252,0,0,1,3.5,2.856L.018,0H4Z" />
  </g>
</svg>
