<?xml version="1.0" encoding="UTF-8"?>
<svg width="30px" height="30px" viewBox="0 0 30 30" version="1.1" xmlns="http://www.w3.org/2000/svg" xmlns:xlink="http://www.w3.org/1999/xlink">
    <g stroke="none" stroke-width="1" fill="none" fill-rule="evenodd">
        <g transform="translate(-60.000000, -102.000000)">
            <g transform="translate(60.000000, 102.000000)">
                <path d="M15.58935,23.1015 L10.1571,23.1015 L10.1571,15.8796 L8.2422,15.8796 L8.2422,14.1105 L10.15695,14.1105 L10.15695,6.88815 L14.81925,6.88815 C15.9222,6.88815 23.22765,6.6591 23.22765,15.13035 C23.22765,23.7417 15.5895,23.1015 15.5895,23.1015 L15.58935,23.1015 Z M15.36,9.885 L13.2168,9.885 L13.2168,14.11035 L16.58865,14.11035 L16.58865,15.87945 L13.2168,15.87945 L13.2168,20.1045425 L15.465,20.1045 C16.04265,20.1045 20.2074,20.16975 20.20095,15.1887 C20.1945,10.20765 16.1616,9.885 15.36,9.885 Z" fill="#FFFFFF" fill-rule="nonzero"></path>
            </g>
        </g>
    </g>
</svg>
