<svg xmlns="http://www.w3.org/2000/svg" viewBox="0 0 30 30">
  <defs>
    <style>
      .icon_ENJ_a {
        fill: none;
      }

      .icon_ENJ_b {
        fill: #fff;
      }
    </style>
  </defs>
  <rect class="icon_ENJ_a" width="30" height="30" />
  <path class="icon_ENJ_b" d="M12.4,16.4h-5a3.8,3.8,0,0,1-.55-.049H6.843A3.657,3.657,0,0,0,6.3,16.3a3.021,3.021,0,0,1-1-.4c-.073-.049-.14-.1-.2-.145l-.022-.016-.018-.014,0,0-.005,0A1.92,1.92,0,0,0,4.5,15.4a.958.958,0,0,1-.242-.192L4.251,15.2A.977.977,0,0,0,4,15l-.005-.005A2.66,2.66,0,0,1,3.5,14.4l-.3-.45-.3-.45c-.111-.186-.233-.367-.369-.568A9.088,9.088,0,0,1,1.9,11.9a5.074,5.074,0,0,1-.5-1.3,3.456,3.456,0,0,1-.2-1,2.729,2.729,0,0,0-.05-.451A3.089,3.089,0,0,1,1.2,7.8V7.7A7.023,7.023,0,0,0,2,13.2l-.01-.007A1.415,1.415,0,0,1,1.7,12.8a3.011,3.011,0,0,1-.5-.7c-.1-.2-.2-.37-.3-.547l-.017-.03C.787,11.353.693,11.185.6,11A4.865,4.865,0,0,1,.2,9.9a2.2,2.2,0,0,1-.1-.8A2.807,2.807,0,0,0,.05,8.65,2.732,2.732,0,0,1,0,8.2a2.785,2.785,0,0,1,.1-.9,5.025,5.025,0,0,0,.1-.55A5.021,5.021,0,0,1,.3,6.2a1.445,1.445,0,0,1,.123-.482l.019-.051C.461,5.614.481,5.558.5,5.5l0-.005A3.552,3.552,0,0,1,.9,4.6l.171-.257L1.5,3.7a2.611,2.611,0,0,0,.231-.275l.014-.018L1.751,3.4l.007-.01A2.648,2.648,0,0,1,2,3.1a2.728,2.728,0,0,1,.477-.5l.007-.007.007-.006c.1-.088.2-.179.309-.284a5.384,5.384,0,0,1,.895-.7l.005,0A6.032,6.032,0,0,1,4.942.875L5.054.821,5.3.7A4.9,4.9,0,0,1,6.4.3l.005,0h.006A5.05,5.05,0,0,1,7.6.1a12.847,12.847,0,0,1,2-.1,4.7,4.7,0,0,1,.624.055l.029,0A3.632,3.632,0,0,0,10.7.1a.9.9,0,0,1,.5.1H11.2a5.628,5.628,0,0,1,1.2.4.316.316,0,0,1,.2.1A9.761,9.761,0,0,0,11.443.631,11.423,11.423,0,0,0,5.7,2.3h9.8c.1,0,.2,0,.3.2a3.287,3.287,0,0,1,.435.943l0,.01c.047.138.1.293.161.446a2.924,2.924,0,0,1,.1.45,2.893,2.893,0,0,0,.1.45v.3a.312.312,0,0,1-.1.2l-.8.7a4.4,4.4,0,0,1-.349.3,4.3,4.3,0,0,0-.35.3c-.061,0-.084.036-.115.086l0,.007A.557.557,0,0,1,14.8,6.8h1.7V9.9a.1.1,0,0,1-.1.1,3.914,3.914,0,0,1-.5.4,3.862,3.862,0,0,0-.5.4l-.213.213L14.7,11.5h1.6v.6a1.276,1.276,0,0,1-.1.6.906.906,0,0,1-.1.5l-.1.7a.761.761,0,0,1-.2.5c0,.062-.04.087-.091.118a.533.533,0,0,0-.11.082,5.769,5.769,0,0,1-.651.4,5.63,5.63,0,0,0-.648.4c-.2.1-.4.228-.6.351l-.014.008c-.181.113-.387.242-.584.341a.529.529,0,0,1-.15.1.51.51,0,0,0-.15.1A.6.6,0,0,1,12.4,16.4ZM3.7,13.9a.1.1,0,0,0,.1.1l.9.9a4.168,4.168,0,0,0,1.1.7,3.3,3.3,0,0,0,1.3.4h5.4a.369.369,0,0,0,.3-.1,2.192,2.192,0,0,0,.5-.3c.3-.15.606-.328.9-.5s.6-.349.9-.5a.217.217,0,0,1,.2-.2H5.2a1.907,1.907,0,0,1-.691-.164A3.687,3.687,0,0,0,4.1,14.1a.531.531,0,0,0-.208-.118A1.938,1.938,0,0,1,3.7,13.9ZM4.9,9.8a2.284,2.284,0,0,0,.138.231l.006.008.005.009A2.171,2.171,0,0,1,5.2,10.3l.6.9a.562.562,0,0,1,.083.109c.033.053.056.092.118.092h8.3a5.756,5.756,0,0,0,.8-.7,2.7,2.7,0,0,0,.4-.349A2.684,2.684,0,0,1,15.9,10a.1.1,0,0,0,.1-.1C12.3,9.8,8.538,9.8,4.9,9.8ZM6.1,5.2a.522.522,0,0,0-.4.2,1.465,1.465,0,0,0-.6.9.556.556,0,0,0-.109.245v0A1.423,1.423,0,0,1,4.9,6.8h9.3a.367.367,0,0,0,.3-.1c0-.062.038-.086.091-.118A.565.565,0,0,0,14.7,6.5a10.581,10.581,0,0,1,1.2-1,.439.439,0,0,1,.1-.3H6.1Z"
    transform="translate(6.4 6.8)" />
</svg>
