<svg xmlns="http://www.w3.org/2000/svg" viewBox="0 0 30 30">
  <defs>
    <style>
      .icon_ESS_a {
        fill: none;
      }

      .icon_ESS_b {
        fill: #fff;
      }
    </style>
  </defs>
  <rect class="icon_ESS_a" width="30" height="30" />
  <path class="icon_ESS_b" d="M9.832,20.267A10,10,0,0,1,0,10.133,10,10,0,0,1,9.832,0a9.6,9.6,0,0,1,5.6,1.8A10.1,10.1,0,0,1,19,6.424v4.766l-7,3.295a4.534,4.534,0,0,1-2.172.538,4.774,4.774,0,0,1-4-2.2L3.277,14.112A7.794,7.794,0,0,0,6.014,16.92a7.449,7.449,0,0,0,3.838,1.067,7.263,7.263,0,0,0,3.458-.87l5.649-2.8v2.528l-4.624,2.28A9.4,9.4,0,0,1,9.832,20.267Zm0-17.734a7.554,7.554,0,0,0-7.294,7.774,7.881,7.881,0,0,0,.346,2.359l2.463-1.251a4.574,4.574,0,0,1-.135-1.149,4.764,4.764,0,0,1,4.6-4.9,4.522,4.522,0,0,1,3.406,1.621L7.4,9.692l2.848,2.154,6.215-2.954v-1.8A7.316,7.316,0,0,0,9.827,2.534Z"
    transform="translate(5 5)" />
</svg>
