<svg xmlns="http://www.w3.org/2000/svg" viewBox="0 0 30 30">
  <defs>
    <style>
      .icon_GAME__a {
        fill: none;
      }

      .icon_GAME__b {
        fill: rgba(255, 255, 255, 0.6);
      }

      .icon_GAME__c {
        fill: #fff;
      }
    </style>
  </defs>
  <rect class="icon_GAME__a" width="30" height="30" />
  <path class="icon_GAME__b" d="M0,0H11.123V2.492H0Z" transform="translate(12.123 11.679)" />
  <path class="icon_GAME__c" d="M18.015,10.85H6.892v2.492h8.262v2.34a9.285,9.285,0,0,1-3.277,1.446,7.344,7.344,0,0,1-8.4-4.338C1.631,6.513,6.108,4.021,6.108,4.021a7.754,7.754,0,0,1,9.6.923l1.938-1.892c-3.231-3.692-8.215-3-8.215-3C1.354.882.292,7.667.292,7.667a10.25,10.25,0,0,0,2.354,9.185c6.738,6.831,15.415.554,15.415.554V10.85Z"
    transform="translate(5.231 4.981)" />
</svg>
