<svg xmlns="http://www.w3.org/2000/svg" viewBox="0 0 30 30">
  <defs>
    <style>
      .icon_GRC__a {
        fill: none;
      }

      .icon_GRC__b {
        fill: #fff;
      }
    </style>
  </defs>
  <rect class="icon_GRC__a" width="30" height="30" />
  <g transform="translate(5 3)">
    <path class="icon_GRC__b" d="M9.682,22.615h0L0,16.967V5.649L9.682,0l9.7,5.649V16.967l-9.7,5.648ZM9.692.807.807,6.053v10.51l8.885,5.245,8.885-5.245V6.053Z"
      transform="translate(0.808 0.808)" />
    <g transform="translate(3.231 2.423)">
      <path class="icon_GRC__b" d="M4.135,15.874h0A7.5,7.5,0,0,1,0,9.468,8.061,8.061,0,0,1,4.1,3.244L9.891,0l2.493,1.229L7.26,4.21C4.5,5.655,3.071,7.3,3,9.088A5.275,5.275,0,0,0,4.78,12.9a11.171,11.171,0,0,0,1.868,1.561l-2.512,1.41ZM4.1,2.5h0L2.67,1.269,4.668,0,6.291,1.269,4.1,2.5Z"
        transform="translate(0.026 0.025)" />
      <path class="icon_GRC__b" d="M1.721,16.035h0L0,14.827,2.354,13.5l1.741,1.108-2.374,1.43ZM6.35,5.117H3.561C3.678,2.907.037,1.285,0,1.269L2.394,0A8.92,8.92,0,0,1,5.856,3.465,4.111,4.111,0,0,1,6.35,5.115Z"
        transform="translate(7.959 3.329)" />
      <path class="icon_GRC__b" d="M5.242,0,3.976,2.337H8.7s1.563.262-8.7,5.1L3.145,8.964S14.006,4.774,12.621,0" transform="translate(1.767 10.037)" />
    </g>
  </g>
</svg>
