<svg xmlns="http://www.w3.org/2000/svg" viewBox="0 0 30 30">
  <defs>
    <style>
      .icon_GRS__a {
        fill: none;
      }

      .icon_GRS__b {
        fill: #fff;
      }
    </style>
  </defs>
  <rect class="icon_GRS__a" width="30" height="30" />
  <g transform="translate(7 2)">
    <path class="icon_GRS__b" d="M1.665,26.608h0A14.983,14.983,0,0,1,0,25.824c.331-.349.759-.762,1.273-1.229l1.184-1.062.215-.217a5.491,5.491,0,0,1-1.233-.63,1.613,1.613,0,0,1-.715-1.278,2.492,2.492,0,0,1,.621-1.467A23.906,23.906,0,0,1,4,17.338a4.737,4.737,0,0,1-2.548-1.926A5.582,5.582,0,0,1,.543,12.3a5.989,5.989,0,0,1,1.675-4,6.018,6.018,0,0,1,4.735-1.89,8.053,8.053,0,0,1,2.9.621,9.609,9.609,0,0,0,1.293.406A29.294,29.294,0,0,0,13.1,5.161a3.817,3.817,0,0,0,.847-2.241,1.941,1.941,0,0,0-.517-1.456,1.72,1.72,0,0,0-1.235-.5,1.8,1.8,0,0,0-1.435.646A3.763,3.763,0,0,0,10.178,2.7L9.9,2.642A3.39,3.39,0,0,1,11,.579,2.719,2.719,0,0,1,12.654,0a2.376,2.376,0,0,1,1.769.688A2.323,2.323,0,0,1,15.1,2.371a3.4,3.4,0,0,1-.731,2.041A39.858,39.858,0,0,1,11.56,7.527a7.478,7.478,0,0,0,1.334.127c.251,0,.635-.009,1.143-.027s.879-.027,1.107-.027h.075a3.032,3.032,0,0,0,.384-.565l.167.077-.411,1.031v.915H12.245c.218.508.387.951.5,1.314a7.064,7.064,0,0,1,.306,1.98,5.3,5.3,0,0,1-1.7,3.772,6.186,6.186,0,0,1-4.582,1.719,14.109,14.109,0,0,1-1.62-.162c-.347,0-.813.3-1.387.882A2.436,2.436,0,0,0,2.9,20c0,.382.425.667,1.263.846A8.74,8.74,0,0,0,6,21.029a24.87,24.87,0,0,1,6.292.522,3.516,3.516,0,0,1,2.723,3.637c0,.1,0,.193-.01.282-.334.2-.68.4-1.031.575a2.038,2.038,0,0,0,.014-.245c0-.8-.51-1.34-1.515-1.6a18.556,18.556,0,0,0-3.554-.27c-.419-.011-.879-.026-1.407-.045-.462-.017-.918-.038-1.353-.063-.267-.013-.7-.061-1.281-.144s-1.031-.157-1.317-.216c-.144,0-.5.382-1.052,1.134a3.793,3.793,0,0,0-.848,2.012ZM6.376,7.438a2.434,2.434,0,0,0-2.43,1.674A6.1,6.1,0,0,0,3.6,11.29a7.464,7.464,0,0,0,1.062,3.942,3.165,3.165,0,0,0,2.755,1.747,2.558,2.558,0,0,0,1.656-.541,3.658,3.658,0,0,0,1.079-3.006A10.381,10.381,0,0,0,9.283,9.58,3.01,3.01,0,0,0,6.376,7.438Z"
      transform="translate(0.802 0.338)" />
  </g>
</svg>
