<svg xmlns="http://www.w3.org/2000/svg" viewBox="0 0 30 30">
  <defs>
    <style>
      .icon_LTC__a {
        fill: none;
      }

      .icon_LTC__b {
        fill: #fff;
      }
    </style>
  </defs>
  <rect class="icon_LTC__a" width="30" height="30" />
  <path class="icon_LTC__b" d="M1.472,8.419c-.471.163-.843.3-1.214.42-.2.07-.322.07-.223-.187a.524.524,0,0,0,.05-.187,1.784,1.784,0,0,1,1.685-1.8c.248-.023.3-.234.347-.4C2.637,4.378,3.182,2.51,3.7.618,3.926-.13,3.827.01,4.57.01H7.494c.322,0,.4.07.322.374C7.4,1.785,7,3.21,6.6,4.635c-.025.117-.124.257,0,.35.1.07.223-.023.322-.07l1.264-.42c.223-.093.273-.023.223.187-.124.42-.248.841-.347,1.261a.469.469,0,0,1-.347.35c-.446.14-.892.3-1.338.444a.675.675,0,0,0-.5.514c-.2.747-.4,1.495-.62,2.219-.1.327-.05.444.347.42,1.908-.023,3.817,0,5.725,0,.52,0,.52,0,.372.467-.149.537-.322,1.074-.471,1.612a.343.343,0,0,1-.4.3H.828c-.347,0-.372-.117-.3-.4.3-1,.57-2.009.867-3.013A1.968,1.968,0,0,1,1.472,8.419Z"
    transform="translate(9 9)" />
</svg>
