<svg xmlns="http://www.w3.org/2000/svg" viewBox="0 0 30 30">
  <defs>
    <style>
      .icon_PIVX__a {
        fill: none;
      }

      .icon_PIVX__b {
        fill: #fff;
      }

      .icon_PIVX__c {
        fill: rgba(255, 255, 255, 0.8);
      }

      .icon_PIVX__d {
        fill: rgba(255, 255, 255, 0.6);
      }
    </style>
  </defs>
  <rect class="icon_PIVX__a" width="30" height="30" />
  <g transform="translate(6 6)">
    <g transform="translate(1)">
      <path class="icon_PIVX__b" d="M.009,0V1.109H.045l8.235,1.2V13c0,2.467-5.845,5.074-8.28,5.943v1.035l.146-.05C.511,19.807,9,16.529,9,13V1.705Z"
        transform="translate(7.982)" />
      <path class="icon_PIVX__c" d="M13.377,11.894h0a16.934,16.934,0,0,1-7.13-1.7A12.026,12.026,0,0,1,4.7,9.238V8.749H7.568a3.808,3.808,0,0,0,2.575-.878,3.038,3.038,0,0,0,1.009-2.35c0-1.9-1.44-3.178-3.584-3.178H3.355v.943l2.882-.008h1.2A2.236,2.236,0,0,1,9.986,5.53,2.261,2.261,0,0,1,7.423,7.822H3.556v.463A12.523,12.523,0,0,1,0,.911L6.246,0l7.523,1.093v9.693a2,2,0,0,1-.392,1.108ZM2.607,5.14v.828H6.984V5.14H2.607Z"
        transform="translate(1.754 1.937)" />
    </g>
    <path class="icon_PIVX__c" d="M8.811,18.914,8.766,18.9l-.081-.025-.045-.017-.081-.033-.027-.008-.1-.041L8.4,18.765,8.3,18.724l-.018-.008-.118-.05H8.142l-.136-.05H8a28.975,28.975,0,0,1-4.134-2.061l-.163-.1-.163-.116-.154-.1-.009-.008-.145-.1-.009-.008-.145-.1-.009-.008-.145-.1L2.9,15.908l-.136-.091-.018-.008-.127-.091L2.605,15.7l-.118-.091-.018-.017L2.361,15.5l-.027-.017-.1-.091-.027-.025-.1-.091-.027-.025-.1-.083-.027-.025-.09-.083-.027-.033-.081-.083-.027-.033-.081-.083L1.619,14.8l-.081-.066L1.5,14.7l-.063-.074L1.4,14.585l-.063-.074L1.3,14.469l-.055-.074-.027-.041-.055-.074-.027-.041a.447.447,0,0,0-.045-.066l-.036-.05-.036-.066L.995,14c-.009-.025-.027-.041-.036-.066a.267.267,0,0,0-.027-.05A.541.541,0,0,1,.9,13.822C.9,13.8.886,13.789.877,13.764a.386.386,0,0,0-.027-.058.112.112,0,0,1-.018-.058c0-.025-.018-.05-.018-.066A.144.144,0,0,0,.8,13.524a.492.492,0,0,1-.018-.058c-.009-.025-.009-.041-.018-.066a.114.114,0,0,1-.009-.05c0-.017-.009-.041-.009-.066s-.009-.033-.009-.05a.285.285,0,0,0-.018-.074c-.009-.025,0-.025,0-.041V2.309l8.17-1.2H8.92V0L0,1.705V13.012c0,1.655,1.855,3.22,3.863,4.437A39.551,39.551,0,0,0,8.784,19.94l.145.05V18.955l-.118-.041" />
    <path class="icon_PIVX__d" d="M7.463,9.279a11.881,11.881,0,0,1-1.538-.952v3.658H4.795V7.375A12.583,12.583,0,0,1,1.276,0L0,.182V9.875c0,2.243,5.274,4.619,7.463,5.405a24.986,24.986,0,0,0,5.3-2.64c.127-.091.262-.182.38-.273a5.979,5.979,0,0,0,1.393-1.374A16.981,16.981,0,0,1,7.463,9.279"
      transform="translate(1.457 2.847)" />
  </g>
</svg>
