<?xml version="1.0" encoding="UTF-8"?>
<svg width="30px" height="30px" viewBox="0 0 30 30" version="1.1" xmlns="http://www.w3.org/2000/svg" xmlns:xlink="http://www.w3.org/1999/xlink">
    <g id="icon_POWR__Icons" stroke="none" stroke-width="1" fill="none" fill-rule="evenodd">
        <g id="icon_POWR__icons" transform="translate(-60.000000, -152.000000)">
            <g id="icon_POWR__POWR" transform="translate(60.000000, 152.000000)">
                <g id="icon_POWR__power-ledger" transform="translate(5.000000, 5.000000)" fill="#FFFFFF" fill-rule="nonzero" stroke="#FFFFFF" stroke-width="0.2">
                    <path d="M16.7784942,6.7404127 C16.7713682,6.73475641 16.7643433,6.72911481 16.7574496,6.72347322 C16.7450156,6.73473806 16.7347814,6.74813855 16.7272509,6.76301495 C16.7511793,6.91324008 16.7848011,7.06182077 16.8279132,7.20785945 C16.8782443,7.33637008 16.8681781,7.49453701 16.9789066,7.61316221 C17.222258,7.30480014 17.2758343,7.23691101 17.1253136,7.06256374 C17.1972061,7.11623791 17.2350761,7.1024878 17.2947685,7.0089367 C17.6306615,6.5104348 17.98055,6.00196287 18.3604289,5.45361078 L18.3644276,5.45361078 C18.2744563,5.45361078 18.2544627,5.44364074 18.234469,5.45361078 C17.8845805,5.65301154 17.534692,5.84244226 17.1848036,6.04184302 C16.5955457,6.37539089 16.482003,6.43692592 16.7784942,6.7404127 Z M11.3826668,2.70620977 C11.2438047,2.45300356 10.9999779,2.47073845 10.586851,2.75941446 C10.8888379,2.8286125 11.1606261,2.95712313 11.4726792,2.96700856 C11.454549,2.88446023 11.4326407,2.81357282 11.4063798,2.75434635 C11.5176909,2.96148578 11.7611999,3.20319683 11.8824934,3.16050204 C12.1161254,3.05727477 12.3402438,2.9338394 12.5522799,2.79161064 C12.5726524,2.77043963 12.5802597,2.74009201 12.5722735,2.71185033 C12.4123245,2.58223984 12.3023596,2.37286904 12.0824296,2.30307877 C11.8525029,2.362899 11.6425698,2.41274919 11.4326367,2.47256942 C11.4026463,2.48253946 11.3526622,2.51244957 11.3526622,2.54235969 C11.341162,2.58364959 11.3540045,2.64182819 11.3826668,2.70620977 Z M10.1430477,0.019940076 C10.7628502,0.707872697 11.4326367,1.33598509 12.0724328,1.9940076 C12.1923946,2.11364805 12.3123564,2.08373794 12.4423149,2.04385779 C13.2220664,1.84445703 14.0118148,1.64505627 14.7915663,1.42571543 C15.021493,1.35592517 15.0914707,1.40577536 15.1514516,1.63508623 C15.341391,2.41274919 15.5613209,3.17047208 15.7612572,3.94813504 C15.8112413,4.15750584 15.9012126,4.2771463 16.1311393,4.32699649 C16.9408813,4.52639725 17.7306296,4.76567816 18.5303747,4.96507892 C18.7403078,5.01492911 18.7702983,5.09468941 18.7103174,5.28412013 C18.4903875,6.0617831 18.2904512,6.83944606 18.0605245,7.61710902 C17.9784586,7.80738992 18.036053,8.02894453 18.2004799,8.15549107 C18.7603015,8.69387312 19.2901326,9.26216529 19.8499542,9.80054734 C20.0398937,9.98997806 20.0598873,10.0896784 19.8499542,10.2890792 C19.270139,10.8374313 18.7103174,11.4156935 18.140499,11.9640456 C17.9992758,12.0754838 17.9501649,12.2673195 18.0205372,12.4326374 C18.2404671,13.2202704 18.4404034,14.0178734 18.6603333,14.7955364 C18.730311,15.0348173 18.6603333,15.1245476 18.4304066,15.1743978 C17.6506551,15.3638285 16.8908972,15.5831694 16.1111457,15.7726001 C15.8912158,15.8224503 15.7812509,15.9121806 15.7312668,16.1414915 C15.5413273,16.9091844 15.3014038,17.6768773 15.1114643,18.4445703 C15.0514834,18.6738811 14.9615121,18.7137613 14.7415822,18.6539411 C13.9718275,18.4346002 13.2020728,18.2451695 12.4323181,18.0158586 C12.2391414,17.9387384 12.0181089,17.9999719 11.8924902,18.1654092 C11.3326686,18.7436714 10.7528534,19.2920235 10.2030286,19.8702857 C10.0230859,20.0497464 9.9231178,20.0397764 9.75317196,19.8603157 C9.20334718,19.2920235 8.6435256,18.7436714 8.09370082,18.1753792 C7.95913164,18.0037188 7.72836604,17.939116 7.52388242,18.0158586 C6.75412773,18.2351995 5.97437623,18.4146602 5.20462155,18.634001 C5.00468527,18.6938212 4.93470757,18.643971 4.8847235,18.4445703 C4.68478722,17.6569373 4.46485731,16.8892443 4.26492103,16.1016113 C4.21493696,15.8922405 4.12496563,15.7726001 3.8950389,15.7227499 C3.11528741,15.5333192 2.35552954,15.3040083 1.57577804,15.1145776 C1.28587043,15.0447873 1.24588317,14.9351169 1.32585768,14.6659259 C1.55578441,13.898233 1.74572388,13.13054 1.96565379,12.3628471 C2.03235879,12.1983088 1.97888602,12.0096042 1.8356952,11.9042254 C1.25587999,11.3359332 0.696058397,10.757671 0.11624318,10.1893788 C-0.0337090309,10.0398283 -0.043705845,9.95009791 0.11624318,9.80054734 C0.706055211,9.23225517 1.27587361,8.64402293 1.86568565,8.07573077 C2.00690879,7.96429259 2.05601968,7.77245682 1.98564741,7.60713898 C1.7657175,6.82947602 1.58577485,6.04184302 1.35584813,5.27415009 C1.27587361,5.00495907 1.34585131,4.91522873 1.60576848,4.8554085 C2.39551679,4.66597778 3.16527148,4.44663694 3.95501979,4.24723618 C4.11797589,4.22147438 4.24427496,4.09145035 4.26492103,3.92819497 C4.46485731,3.150532 4.69478403,2.37286904 4.89472031,1.59520608 C4.9547012,1.3658952 5.04467252,1.32601505 5.26460243,1.38583528 C6.04435393,1.60517612 6.82410543,1.80457688 7.60385693,2.02391771 C7.76979782,2.09164225 7.96063049,2.04304952 8.07370719,1.90427726 C8.66351922,1.30607498 9.26332807,0.717842735 9.86313691,0.129610494 C9.90999416,0.103894929 9.93738098,0.0531699298 9.93311461,0 C10.0020083,0.0152034046 10.072515,0.0219003478 10.1430477,0.019940076 Z M6.00436668,3.90825489 C5.78443677,3.96807512 5.56450686,4.02789535 5.34457695,4.0677755 C5.28737514,4.07230512 5.23488203,4.10112771 5.20045293,4.14691022 C5.16602383,4.19269273 5.1529779,4.25102147 5.16463429,4.30705641 C5.17463111,4.46657702 5.16463429,4.62609763 5.16463429,4.81552835 C5.48453234,4.50645717 5.76444314,4.22729611 6.04435393,3.95810508 C6.05184433,3.93756649 6.06589396,3.92005149 6.08434119,3.90825489 C6.05792229,3.90321726 6.03078558,3.90321726 6.00436668,3.90825489 Z M0.935981935,9.68090688 C1.31586087,9.59117654 1.69573981,9.5014462 2.07561874,9.40174582 C2.50548175,9.2920754 2.51547856,9.26216529 2.28555184,8.83345366 L0.905991493,9.64102673 L0.935981935,9.68090688 Z M0.72604884,10.5383302 C1.14591503,11.026862 1.60576848,11.4655437 2.06562193,11.9241654 C2.25556139,11.545304 2.28555184,11.3658433 2.15559325,11.296053 C1.68574299,11.036832 1.24588317,10.7177908 0.736045654,10.5283601 L0.72604884,10.5383302 Z M5.84441765,1.75472669 C6.18430933,2.03388775 6.59417871,2.22331847 6.96406083,2.45262934 C7.39392383,2.71185033 7.42391428,2.70188029 7.7238187,2.21334843 C7.09801814,2.09370798 6.49820929,1.83448699 5.84441765,1.75472669 Z M5.77443995,18.3149598 C6.42423287,18.2351995 7.02404171,18.0058886 7.75380914,17.836398 C7.49389198,17.6968174 7.43391109,17.3478661 7.17399392,17.4675066 C6.69414685,17.7167575 6.20430296,17.9660084 5.77443995,18.3149598 C5.74444951,18.3249298 5.71445907,18.3348999 5.67447181,18.3448699 L5.77443995,18.3149598 Z M19.2501453,10.5881803 C18.9002568,10.7776111 18.5403715,10.9670418 18.190483,11.1564725 C17.7306296,11.4057235 17.7406264,11.4057235 17.8905786,11.8942553 C17.8987404,11.9088277 17.9088273,11.9222409 17.9205691,11.9341355 C18.3804225,11.4954538 18.8302791,11.0567721 19.2901326,10.6180905 L19.2501453,10.5881803 Z M1.67574618,14.3468847 C1.89567609,14.0378135 2.12560281,13.7287423 2.34553272,13.4097011 C2.7554021,12.8214688 2.7554021,12.8214688 2.23556777,12.322967 C2.22557095,12.3129969 2.19558051,12.3129969 2.16559007,12.3030269 L1.62576211,14.3070045 L1.67574618,14.3468847 Z M1.63575892,5.26418006 C1.60576848,5.26418006 1.58577485,5.25421002 1.55578441,5.25421002 C1.56578122,5.28412013 1.56578122,5.30406021 1.57577804,5.33397032 C1.78571113,6.13157336 1.98564741,6.91920636 2.19558051,7.7168094 C2.23023434,7.73750669 2.26712366,7.75422965 2.30554547,7.76665959 C2.70541803,7.33794796 3.10529059,6.90923632 3.51515997,6.49049473 C3.61512811,6.38082431 3.52515678,6.36088423 3.4651759,6.32100408 C2.84537343,5.97205275 2.23556777,5.61313139 1.63575892,5.26418006 Z M10.6728789,12.083686 C10.7828438,12.1335362 10.8328279,12.0338358 10.9028056,11.9540755 C11.2926813,11.4954538 11.6725603,11.026862 12.062436,10.5782103 C12.1596095,10.4848548 12.1839789,10.3390295 12.1224169,10.2192889 C11.9124838,9.67093685 11.7125475,9.11261472 11.5126112,8.56426263 C11.4794043,8.43351092 11.3673396,8.33771279 11.2327004,8.32498172 C10.6328916,8.22528134 10.0230859,8.11561092 9.42327709,8.0059405 C9.32111217,7.97637462 9.21156973,8.01683722 9.15336311,8.10564088 C8.76348736,8.58420271 8.3636148,9.06276453 7.95374542,9.53135631 C7.8692248,9.61141328 7.84876441,9.73792797 7.90376135,9.84042749 C8.11369445,10.4087197 8.32362754,10.9869819 8.53356064,11.555274 C8.5735479,11.6549744 8.61353515,11.7347347 8.74349374,11.7546748 C9.38328984,11.8643452 10.0130891,11.9740156 10.6728789,12.083686 Z M6.33426154,13.4695213 C6.62416915,12.3927572 6.90407994,11.3459032 7.19398755,10.2990492 C7.24397162,10.1295586 7.16399711,10.1096185 7.02404171,10.1096185 C6.48421375,10.1096185 5.94438579,10.1195886 5.40455783,10.0996485 C5.18462792,10.0896784 5.15463748,10.1694387 5.15463748,10.3588695 C5.16463429,10.8872815 5.16463429,11.4156935 5.14464067,11.9441055 C5.12464704,12.7815887 5.12464704,12.7815887 5.86441128,13.2003303 C6.00436668,13.2800906 6.15431889,13.3598509 6.33426154,13.4695213 Z M8.69750839,12.4924576 C8.36761353,13.0507797 8.0677091,13.5791917 7.74781105,14.1076037 C7.66783654,14.2372142 7.7078238,14.2970345 7.82778557,14.3668247 C8.4875753,14.7456862 9.13736821,15.1245476 9.78716113,15.5133791 C9.88925422,15.5893304 10.026946,15.5971774 10.1370496,15.5333192 C10.436954,15.3638285 10.7268617,15.1843679 11.0267661,15.0248472 C11.1467278,14.955057 11.136731,14.9151768 11.0467597,14.8254465 C10.2630095,14.0577536 9.49725352,13.2900606 8.69750839,12.4924576 Z M8.85745742,5.16447968 C9.66719936,5.95211268 10.436954,6.69986553 11.2067087,7.45758841 C11.3466641,7.59716894 11.3966482,7.53734872 11.4666259,7.40773822 C11.7365399,6.93914644 11.996457,6.47055465 12.2863646,6.01193291 C12.376336,5.86238234 12.3663392,5.79259207 12.2063901,5.70286173 C11.5565972,5.33397032 10.9168011,4.95510888 10.277005,4.5662774 C10.168877,4.48344302 10.0195794,4.47941875 9.9071229,4.55630736 C9.58322612,4.75570812 9.25333125,4.9351688 8.85345869,5.16447968 L8.85745742,5.16447968 Z M13.7159091,6.62010522 C13.4260015,7.69686932 13.1360938,8.75369335 12.8461862,9.81051738 C12.806199,9.97003799 12.8761767,9.98000802 13.0061353,9.98000802 C13.5359664,9.98000802 14.0657976,9.96006795 14.5956287,9.98997806 C14.8455491,9.9999481 14.8955331,9.90024772 14.8855363,9.69087692 C14.8855363,8.97303419 14.8855363,8.26516149 14.8955331,7.54731875 C14.9119663,7.41325548 14.8445782,7.28279372 14.7255873,7.2183075 C14.4016905,7.0089367 14.0717956,6.81950598 13.7119103,6.62010522 L13.7159091,6.62010522 Z M14.8355522,12.2930568 C14.8355522,12.0537759 14.8255554,11.8942553 14.8355522,11.7447047 C14.8555459,11.555274 14.795565,11.5253639 14.6056255,11.5752141 C13.6359345,11.8444051 12.6662436,12.0936561 11.6865558,12.342907 C11.5366036,12.3827872 11.4766227,12.4326374 11.5765908,12.592158 C11.8565016,13.0507797 12.1264156,13.5193715 12.376336,13.9979333 C12.4763041,14.177394 12.5562786,14.167424 12.7162277,14.0776936 C13.2160684,13.7885625 13.7159091,13.4794914 14.2357434,13.2202704 C14.6955968,13.0108996 15.0014994,12.7616486 14.8315535,12.2930568 L14.8355522,12.2930568 Z M5.21461836,7.78659967 C5.21461836,8.01591054 5.22461518,8.16546111 5.21461836,8.30504164 C5.18462792,8.53435252 5.26460243,8.55429259 5.47453553,8.49447236 C6.42423287,8.23525138 7.37393021,7.97603039 8.32362754,7.73674948 C8.52356383,7.68689929 8.55355427,7.6370491 8.44358931,7.45758841 C8.17367533,7.01890674 7.91375817,6.57025503 7.67383463,6.11163329 C7.5838633,5.94214264 7.5138856,5.88232241 7.32394614,6.00196287 C6.82410543,6.30106401 6.33426154,6.60016515 5.8044304,6.85938613 C5.35457376,7.06875693 5.04467252,7.31800788 5.21461836,7.78659967 Z M10.9827801,12.1036261 C11.312675,12.2930568 11.632573,12.2232666 11.9524711,12.1335362 C12.7022321,11.9241654 13.4519932,11.7247647 14.2017542,11.5253639 C14.8215567,11.3558733 14.8215567,11.3658433 14.8315535,10.7377309 C14.8315535,10.6180905 14.8515471,10.48848 14.861544,10.3688395 C14.8815376,10.1893788 14.8315535,10.1096185 14.6316172,10.1096185 C14.161767,10.1195886 13.6919167,10.1096185 13.2320633,10.1096185 C12.7722098,10.1096185 12.7722098,10.1096185 12.6422512,10.5582702 C12.602264,10.6978508 12.6322544,10.9271616 12.4623086,10.9570717 C12.2923627,10.9869819 12.3623404,10.7177908 12.222385,10.6280605 L10.9827801,12.1036261 Z M10.612898,12.2332366 C9.98309868,12.1235662 9.3532994,12.0138958 8.71350329,11.9042254 C8.71350329,12.2930568 8.92343639,12.5123977 9.1433663,12.7317385 C9.7131847,13.2900606 10.2730063,13.8583528 10.8428247,14.426645 C11.2726877,14.8553566 11.2726877,14.8553566 11.8225125,14.5562555 C11.9328972,14.4971165 12.0463543,14.4438679 12.1624042,14.3967349 C12.3423468,14.3269446 12.3623404,14.2372142 12.2623723,14.0677236 C12.0224488,13.6689221 11.7725284,13.2701206 11.5725921,12.851379 C11.4126431,12.5323377 11.2327004,12.4027273 10.882812,12.5622479 C10.7528534,12.6220681 10.5629139,12.7417085 10.4529489,12.6120981 C10.342984,12.4824876 10.612898,12.4027273 10.612898,12.2332366 Z M9.06339179,7.97603039 C8.73349692,7.81650978 8.4335925,7.85638993 8.12369126,7.94612027 C7.35393658,8.16546111 6.58418189,8.36486187 5.81442721,8.56426263 C5.22461518,8.72378324 5.22461518,8.72378324 5.21461836,9.35189563 C5.21461836,9.48150612 5.19462474,9.62108666 5.18462792,9.75069715 C5.16463429,9.90024772 5.21461836,9.97003799 5.39456102,9.97003799 C5.96437942,9.96006795 6.53419782,9.97003799 7.10401623,9.98000802 C7.15987043,9.98910997 7.21703154,9.97511275 7.26230747,9.94124676 C7.30758339,9.90738077 7.33706192,9.8565723 7.34393976,9.80054734 C7.36120424,9.69858151 7.38797865,9.59844639 7.42391428,9.5014462 C7.47389835,9.37183571 7.43391109,9.15249487 7.5838633,9.13255479 C7.75380914,9.11261472 7.69382826,9.37183571 7.83378365,9.47153609 C8.23365622,8.97303419 8.6435256,8.47453229 9.06339179,7.97603039 Z M7.75380914,9.84042749 C7.49839955,10.0203014 7.32282445,10.2918926 7.26396525,10.5981504 C7.09401941,11.3259632 6.88408632,12.0338358 6.68415003,12.7516786 C6.61417234,13.0009295 6.46422012,13.2701206 6.5142042,13.4894614 C6.56418827,13.7287423 6.91407676,13.7586524 7.12400985,13.908203 C7.20398437,13.9580532 7.27396207,14.0178734 7.35393658,14.0677236 C7.48389516,14.167424 7.56386967,14.1474839 7.64384419,13.9979333 C7.82378684,13.6689221 8.01372631,13.3498809 8.20366578,13.0308396 C8.32362754,12.8214688 8.51356701,12.6220681 8.53356064,12.4126973 C8.55355427,12.1634463 8.23365622,12.0537759 8.09370082,11.8643452 C8.05371356,11.804525 7.96374224,11.7646448 8.00372949,11.6848845 C8.04371675,11.6051242 8.13368808,11.6350343 8.20366578,11.6450044 C8.41359887,11.6848845 8.42359569,11.6150943 8.3636148,11.4356336 C8.14368489,10.9271616 7.95374542,10.3887796 7.75380914,9.84042749 Z M11.6425698,8.45459221 C11.8624997,9.04282445 12.0724328,9.63105669 12.3023596,10.249199 C12.5422831,10.0597683 12.6922353,9.88030764 12.762213,9.60114658 C12.9521525,8.82348362 13.1820792,8.04582065 13.3820155,7.26815769 C13.4419964,7.03884682 13.5819518,6.78959587 13.5319677,6.58022507 C13.4819836,6.37085427 13.1520887,6.33097412 12.9721461,6.19139359 C12.909837,6.15149968 12.8497661,6.10823135 12.7922034,6.0617831 C12.6122608,5.92220256 12.492299,5.90226249 12.3723372,6.1415434 C12.172401,6.54034492 11.9324774,6.90923632 11.7025507,7.29806781 C11.4626272,7.7168094 11.4626272,7.70683936 11.792522,8.04582065 C11.8924902,8.14552103 12.0924265,8.23525138 12.0424424,8.36486187 C11.996457,8.53435252 11.7825252,8.35489183 11.6425698,8.45459221 Z M11.3426654,8.17543115 C11.3201921,7.88521229 11.1879736,7.61435568 10.9727833,7.41770826 C10.4029649,6.87932621 9.8531401,6.31103404 9.29731724,5.75271192 C9.11737458,5.58322127 8.97741919,5.31403025 8.74749246,5.26418006 C8.54755618,5.2242999 8.35761671,5.46358082 8.14768362,5.55331116 C8.05771229,5.59319131 7.96774096,5.6430415 7.86777282,5.68292165 C7.69782698,5.75271192 7.68783017,5.83247222 7.7778015,5.99199283 C8.01772503,6.38082431 8.23765494,6.77962583 8.45758485,7.17842735 C8.71750202,7.62707906 8.70750521,7.61710902 9.20734591,7.49746857 C9.32730768,7.46755845 9.4872567,7.33794796 9.58722485,7.45758841 C9.6971898,7.59716894 9.46726308,7.66695921 9.43727263,7.78659967 C9.42727582,7.80653974 9.43727263,7.82647982 9.43727263,7.84641989 C10.0630732,7.96606035 10.6968712,8.06576073 11.3426654,8.17543115 Z M16.5210151,13.7187723 C17.1508144,14.0876637 17.8106041,14.4764952 18.5303747,14.9052068 C18.2904512,14.0178734 18.0705213,13.2003303 17.8605882,12.3927572 C17.4007347,12.8314389 16.9708717,13.2701206 16.5210151,13.7187723 Z M4.14495926,15.6629297 C3.97501342,15.0348173 3.82506121,14.4764952 3.67510899,13.908203 C3.64511855,13.8085026 3.6051313,13.7985326 3.52515678,13.8483828 C2.88536068,14.2073041 2.25556139,14.5662255 1.55578441,14.965027 C2.44550086,15.1943379 3.2552428,15.4136787 4.14495926,15.6629297 Z M16.4010533,6.30106401 C17.0908335,5.91223253 17.76062,5.53337108 18.4903875,5.12459952 C17.5906742,4.88531861 16.7709354,4.65600774 15.9012126,4.42669687 C16.0711585,5.07474933 16.2311075,5.68292165 16.4010533,6.30106401 Z M9.96310505,0.368891405 C9.93311461,0.348951329 9.91312098,0.329011254 9.88313054,0.309071178 C9.32330895,0.887333381 8.76348736,1.46559558 8.19766769,2.04385779 C8.16751264,2.08129947 8.14074945,2.12133672 8.11769317,2.16349824 C8.68751158,2.32301885 9.23733635,2.47256942 9.77716431,2.62211999 C9.9071229,2.66200014 9.96710378,2.62211999 9.96710378,2.47256942 L9.96310505,0.368891405 Z M10.0830668,19.7107651 L10.1730382,19.7705853 C10.7128661,19.2022932 11.2626909,18.643971 11.8025188,18.0756789 C11.8724965,18.0058886 11.9924583,17.9261283 11.7825252,17.8762781 C11.2726877,17.7466676 10.7628502,17.597117 10.2530127,17.4575365 C10.1430477,17.4276264 10.07307,17.4375964 10.07307,17.577177 C10.0830668,18.2950197 10.0830668,19.0028924 10.0830668,19.7107651 Z M15.021493,8.97303419 L15.021493,9.75069715 C15.021493,9.82048742 14.9615121,9.9201878 15.0714771,9.96006795 C15.181442,9.9999481 15.2614165,9.94012787 15.3213974,9.84042749 C15.6612891,9.33195555 16.0111776,8.83345366 16.3610661,8.33495176 C16.4410406,8.2153113 16.4410406,8.14552103 16.3010852,8.07573077 C15.9411999,7.88630005 15.5913114,7.68689929 15.2514197,7.47752849 C15.0814739,7.37782811 15.0414866,7.43764834 15.0414866,7.60713898 L15.021493,8.97303419 Z M5.0246789,11.0567721 C5.0246789,10.8075212 5.03467571,10.5582702 5.0246789,10.3090193 C5.0246789,10.239229 5.09465659,10.1295586 4.9547012,10.1096185 C4.8595131,10.0914933 4.7643219,10.1410252 4.72477447,10.229259 C4.38488279,10.7377309 4.0349943,11.2362328 3.68510581,11.7347347 C3.59513448,11.8643452 3.59513448,11.9341355 3.74508669,12.0138958 C4.09497519,12.1933565 4.43486687,12.3927572 4.77475854,12.592158 C4.96469801,12.7117984 4.99468845,12.6320381 4.99468845,12.4525774 L5.0246789,11.0567721 Z M5.17463111,6.19139359 C5.17463111,6.39079435 5.18462792,6.58022507 5.17463111,6.77962583 C5.16463429,6.94911648 5.18462792,7.03884682 5.3845642,6.91920636 L7.27396207,5.84244226 C7.33394295,5.80256211 7.44390791,5.79259207 7.41391746,5.67295161 C7.38392702,5.55331116 7.29795442,5.55331116 7.19798628,5.54334112 C6.75812646,5.51343101 6.30826982,5.46358082 5.86841001,5.4336707 C5.17862983,5.38382051 5.17862983,5.38382051 5.17862983,6.09169321 L5.17463111,6.19139359 Z M14.8715408,13.8683228 C14.8715408,13.6788921 14.861544,13.4994314 14.8715408,13.3100007 C14.8915344,13.1006299 14.8315535,13.0507797 14.641614,13.1604501 C14.0218116,13.5193715 13.4020091,13.8683228 12.7722098,14.2172742 C12.7022321,14.2571543 12.5922672,14.2671244 12.6222576,14.3867648 C12.652248,14.5064053 12.7322226,14.5163753 12.8321907,14.5263453 C13.2320633,14.5562555 13.6419326,14.5961356 14.0418052,14.6260457 C14.8715408,14.695836 14.8715408,14.695836 14.8715408,13.8683228 Z M9.83314647,15.7227499 C9.11337586,15.3040083 8.4335925,14.8952368 7.74381233,14.4964352 C7.68383144,14.4665251 7.62385056,14.3967349 7.55387286,14.4665251 C7.46390153,14.5462854 7.49389198,14.6260457 7.54387605,14.7157761 C7.81379003,15.2641282 8.08370401,15.8124802 8.33362436,16.3608323 C8.41359887,16.5502631 8.5035702,16.5203529 8.63352878,16.4306226 C9.01340772,16.2013117 9.40328347,15.9720009 9.83314647,15.7227499 Z M10.2130254,4.3569066 C10.9227992,4.7756482 11.5925858,5.17444971 12.2723691,5.5632812 C12.3423468,5.60316135 12.4123245,5.71283177 12.5122926,5.60316135 C12.5922672,5.51343101 12.5422831,5.42370066 12.5022958,5.34394036 C12.2423787,4.79558827 11.9724647,4.24723618 11.7125475,3.69888409 C11.6625634,3.58921367 11.6125794,3.53936348 11.4826208,3.61912379 C11.0827482,3.8584047 10.662882,4.09768561 10.2130254,4.3569066 Z M12.7122289,16.4904428 C12.2523755,16.0318211 11.8025188,15.5931394 11.362659,15.1544577 C11.3146838,15.0985942 11.2313064,15.0898411 11.1727196,15.1345177 C10.8328279,15.3339184 10.502933,15.5233491 10.1430477,15.7227499 C10.5329235,15.9520608 10.9227992,16.1414915 11.2626909,16.3907424 C11.7025507,16.7297237 12.1524073,16.7696039 12.6422512,16.5502631 C12.6422512,16.5502631 12.652248,16.540293 12.7122289,16.4904428 Z M9.90312417,4.3569066 C9.45326754,4.09768561 9.01340772,3.88831481 8.6435256,3.59918371 C8.20366578,3.26020242 7.80379321,3.38981292 7.32394614,3.57924364 C7.7937964,4.04783542 8.24365303,4.48651709 8.68351285,4.9351688 C8.76348736,5.01492911 8.82346825,4.98501899 8.90344276,4.9351688 C9.22334081,4.74573808 9.54323886,4.5662774 9.90312417,4.3569066 Z M15.0414866,12.7616486 C15.3613847,12.5821879 15.6612891,12.4226673 15.9511967,12.2531767 C16.1811234,12.1235662 16.4010533,11.9939557 16.63098,11.8743152 C16.7264265,11.8312637 16.7965452,11.7466104 16.8209195,11.6450044 C16.8709036,11.4256635 16.9308845,11.2162927 17.0008622,10.9570717 C16.6809641,11.036832 16.4010533,11.0966523 16.1211425,11.1863826 C15.7512604,11.3060231 15.2214293,11.2462028 15.0514834,11.555274 L15.0414866,12.7616486 Z M3.07530015,9.13255479 C3.71509625,8.96306415 4.32490191,8.80354354 4.93470757,8.64402293 C4.99994173,8.63140537 5.04386515,8.57007729 5.03467571,8.5044424 L5.03467571,7.30803784 C4.6048127,7.54731875 4.2449274,7.80653974 3.84505483,7.96606035 C3.31522369,8.17543115 3.11528741,8.55429259 3.07530015,9.13255479 Z M14.911528,7.09866705 C14.911528,6.56028499 14.861544,6.08172317 14.9215248,5.61313139 C14.9915025,5.0647793 14.6716045,4.78561823 14.2917256,4.47654706 C14.1217797,5.11462949 13.9618307,5.7228018 13.7918848,6.32100408 C13.7771459,6.35403824 13.7762466,6.39157512 13.7893868,6.42527363 C13.8025269,6.45897214 13.8286181,6.48604084 13.8618625,6.50046477 C14.1957561,6.67992545 14.5216523,6.87932621 14.911528,7.09866705 Z M5.13464385,12.9809895 C5.13464385,13.5692217 5.17463111,14.0976337 5.12464704,14.6160757 C5.07466297,15.1345177 5.46453872,15.3040083 5.75444632,15.6230495 C5.92439216,14.9849671 6.07434438,14.4067049 6.2342934,13.8284427 C6.26428384,13.7387123 6.29427429,13.658952 6.18430933,13.5891618 C5.85441447,13.3997311 5.5245196,13.2103003 5.13464385,12.9809895 Z M3.78507395,9.96006795 L4.40487642,9.96006795 C4.56801342,9.96166133 4.72507484,9.89841715 4.8413697,9.78430448 C4.95766456,9.67019181 5.02362389,9.51460007 5.0246789,9.35189563 C5.0246789,9.23225517 5.01468208,9.10264468 5.0246789,8.98300422 C5.04467252,8.80354354 4.97469483,8.78360347 4.80474899,8.82348362 C4.32490191,8.96306415 3.85505165,9.13255479 3.36520776,9.20234506 C2.98532882,9.26216529 2.91535112,9.49147616 2.84537343,9.78060726 C2.81538298,9.9201878 2.85537024,9.97003799 2.99532564,9.97003799 C3.26523962,9.96006795 3.52515678,9.96006795 3.78507395,9.96006795 Z M12.2823659,14.6459858 C12.0024551,14.5861656 11.8325093,14.7855663 11.6125794,14.8852667 C11.4326367,14.965027 11.4226399,15.0248472 11.5625953,15.1644278 C11.9124838,15.5034091 12.2723691,15.8324203 12.5922672,16.2013117 C12.8221939,16.4705028 13.0521206,16.5004129 13.352025,16.3807724 C13.5019772,16.3209522 13.5119741,16.271102 13.4419964,16.1414915 C13.2020728,15.74269 12.9721461,15.3438885 12.7522162,14.9351169 C12.6422512,14.7257461 12.5222895,14.5861656 12.2823659,14.6459858 Z M15.8112413,10.1395286 C15.4113687,10.0099181 15.2114324,10.2192889 15.0714771,10.50842 C14.9715089,10.6978508 15.0514834,10.8972515 15.021493,11.0866822 C14.9915025,11.276113 15.0814739,11.3060231 15.2514197,11.2561729 C15.7312668,11.1165924 16.2111139,10.9670418 16.6909609,10.8773114 C17.0308526,10.8174912 17.1208239,10.6280605 17.1808048,10.3488994 C17.2107953,10.1993489 17.1808048,10.1395286 17.0208558,10.1395286 C16.6009896,10.1494987 16.195119,10.1395286 15.8112413,10.1395286 Z M5.89840045,15.6629297 C5.86841001,15.8224503 6.0083654,15.8723005 6.0783431,15.9720009 C6.24828894,16.2013117 6.36825071,16.2212518 6.51820292,15.9321207 C6.69600756,15.5690209 6.89980334,15.2191645 7.12800858,14.8852667 C7.31794805,14.6260457 7.25796716,14.4067049 7.10801495,14.1873641 C6.95806274,13.9680232 6.70814239,13.908203 6.49820929,13.7785925 C6.43822841,13.7387123 6.40823797,13.7885625 6.39824115,13.8384127 C6.22429659,14.446585 6.06434756,15.0547574 5.89840045,15.6629297 Z M6.5142042,3.78861443 C6.77412136,4.24723618 7.03403853,4.69588789 7.29395569,5.15450964 C7.43546655,5.42546737 7.76441023,5.53919574 8.04371675,5.41373063 C8.24302212,5.31133029 8.43658113,5.19816858 8.62353197,5.07474933 C8.21366259,4.67594782 7.84378047,4.30705641 7.46390153,3.938165 C7.0840226,3.5692736 7.0840226,3.55930356 6.5142042,3.78861443 Z M4.61480952,10.0996485 L3.02531608,10.0996485 C2.94534157,10.0996485 2.80538617,10.0597683 2.85537024,10.2192889 C2.97533201,10.6978508 3.10529059,11.1764126 3.24524599,11.6549744 C3.28523325,11.7945549 3.40519501,11.8643452 3.51515997,11.6948546 C3.87504528,11.1863826 4.22493377,10.6679406 4.61480952,10.0996485 Z M7.37393021,14.7456862 C7.09401941,15.234218 6.82410543,15.6828698 6.56418827,16.1315215 C6.52420101,16.2013117 6.45422331,16.281072 6.59417871,16.3209522 C7.07402578,16.4505627 7.55387286,16.5901432 8.03371994,16.6998136 C8.19366896,16.7396938 8.2936371,16.6699035 8.19366896,16.4705028 C7.9337518,15.9121806 7.66383781,15.3538585 7.37393021,14.7456862 Z M12.6722417,5.34394036 C12.9621493,4.8554085 13.2220664,4.40675679 13.4819836,3.95810508 C13.5219709,3.88831481 13.5819518,3.79858447 13.4519932,3.76867436 C12.9721461,3.63906386 12.492299,3.49948333 12.0124519,3.38981292 C11.8425061,3.34993276 11.7625316,3.42969307 11.8525029,3.61912379 C12.1124201,4.16747588 12.3723372,4.73576804 12.6722417,5.34394036 Z M15.4213655,9.98000802 L17.010859,9.98000802 C17.1008303,9.98000802 17.2207921,9.9999481 17.170808,9.84042749 C17.0508462,9.37183571 16.9308845,8.90324392 16.7909291,8.43465214 C16.740945,8.27513153 16.63098,8.20534126 16.5010215,8.38480195 C16.1711266,8.90324392 15.8212381,9.41171586 15.4213655,9.98000802 Z M13.7019135,16.2910421 C14.0917893,15.8723005 14.4516746,15.483469 14.8015631,15.1046075 C14.8915344,15.0049072 14.9715089,14.8653266 14.751579,14.8453866 C14.1217797,14.7855663 13.4819836,14.7456862 12.7822066,14.685866 C13.1021047,15.224248 13.3720187,15.7127799 13.7019135,16.2910421 Z M6.36425198,3.84843466 C5.96437942,4.25720622 5.5944973,4.62609763 5.23461199,5.00495907 C5.15463748,5.08471937 5.07466297,5.2242999 5.26460243,5.24423998 C5.90439854,5.31403025 6.55419145,5.3539104 7.26396525,5.40376059 C6.9440672,4.86537854 6.67415322,4.38681671 6.36425198,3.84843466 Z M0.476128487,10.0996485 C0.473780984,10.1164466 0.470442926,10.1330922 0.466131673,10.1494987 C0.82601698,10.3488994 1.17590547,10.5682403 1.53579078,10.757671 C1.78571113,10.8872815 2.07561874,11.2162927 2.28555184,11.1066223 C2.46549449,11.016892 2.45549768,10.5881803 2.55546582,10.3189893 C2.62544352,10.1195886 2.55546582,10.0896784 2.38551998,10.0896784 C1.74572388,10.0996485 1.11592459,10.0996485 0.476128487,10.0996485 Z M5.21461836,1.84445703 C5.196382,1.85551623 5.17587991,1.86233196 5.15463748,1.8643971 C5.15463748,2.2831387 5.14464067,2.69191026 5.16463429,3.11065185 C5.17463111,3.38981292 5.0246789,3.78861443 5.24460881,3.90825489 C5.43454827,4.00795527 5.78443677,3.79858447 6.06434756,3.72879421 C6.07434438,3.72879421 6.08434119,3.71882417 6.094338,3.71882417 C6.22429659,3.69888409 6.24429021,3.63906386 6.17431252,3.52939345 C5.85441447,2.96110128 5.53451641,2.40277915 5.21461836,1.84445703 Z M14.8315535,18.2351995 C14.8515471,18.2252294 14.861544,18.2252294 14.8815376,18.2152594 L14.8815376,16.1215514 C14.5616395,16.2013117 14.2617351,16.2910421 13.9618307,16.3608323 C13.8118785,16.3907424 13.8018817,16.4505627 13.8718594,16.5702031 C14.1957561,17.1285253 14.5116555,17.6868474 14.8315535,18.2351995 Z M19.5300561,9.98000802 C19.5418606,9.95755928 19.5518879,9.93422481 19.5600466,9.91021776 C19.000225,9.59117654 18.4404034,9.28210536 17.8805818,8.95309411 C17.76062,8.88330385 17.7206328,8.923184 17.6906423,9.04282445 C17.6306615,9.2920754 17.5706806,9.54132635 17.4907061,9.7905773 C17.4307252,9.97003799 17.5106997,9.98000802 17.6506551,9.98000802 L19.5300561,9.98000802 Z M5.0246789,7.06875693 L5.0246789,5.58322127 C5.0246789,5.51343101 5.06466615,5.42370066 4.98469164,5.39379055 C4.90659024,5.3572653 4.8134557,5.3825976 4.76476173,5.45361078 C4.50484456,5.7228018 4.2449274,5.98202279 3.97501342,6.24124378 C3.86504846,6.3509142 3.8950389,6.41073442 4.00500386,6.47055465 C4.32490191,6.65998537 4.65479678,6.85938613 5.0246789,7.06875693 Z M15.0114962,13.0108996 L15.0114962,14.4964352 C15.0114962,14.5662255 14.9615121,14.6659259 15.0814739,14.705806 C15.165611,14.7173727 15.2495195,14.6831384 15.3014038,14.6160757 C15.5513241,14.3568547 15.8112413,14.0976337 16.0711585,13.8483828 C16.1711266,13.7486824 16.1611298,13.6888622 16.041168,13.6190719 C15.7112732,13.4296412 15.3953738,13.2302404 15.0114962,13.0108996 Z M10.1030605,4.24723618 C10.5829075,3.96807512 11.0127705,3.70885413 11.4526304,3.45960318 C11.5026144,3.42969307 11.5426017,3.39978295 11.5326049,3.33996273 C11.5126112,3.24026235 11.4326367,3.22032227 11.3526622,3.20038219 C11.0027737,3.11065185 10.6528852,3.02092151 10.3029967,2.91125109 C10.1530445,2.8614009 10.0930636,2.90128105 10.1030605,3.06080166 L10.1030605,4.24723618 Z M9.94311143,16.5203529 L9.94311143,16.0916413 C9.95310824,15.9321207 9.93311461,15.8423904 9.74317514,15.9620308 C9.37329302,16.1913417 8.99341409,16.4007125 8.62353197,16.6200533 C8.5735479,16.6499634 8.5035702,16.6699035 8.51356701,16.7496638 C8.52356383,16.8294241 8.58354471,16.8693043 8.66351922,16.8892443 C8.86345551,16.9390945 9.06339179,16.9989148 9.26332807,17.048765 C9.94311143,17.2282256 9.94311143,17.2282256 9.94311143,16.5203529 Z M17.0508462,14.2073041 C16.3710629,13.8085026 16.3810597,13.8085026 16.1811234,14.5662255 C16.1311393,14.7656263 16.201117,14.8055064 16.3610661,14.8154764 C16.9708717,14.8553566 17.5906742,14.9052068 18.2504639,14.955057 L17.0508462,14.2073041 Z M15.1014675,7.2183075 C15.5513241,7.47752849 15.9711903,7.7168094 16.3910565,7.94612027 C16.4510374,7.97603039 16.5010215,8.05579069 16.580996,8.0059405 C16.6457663,7.94840797 16.6659552,7.85578787 16.63098,7.77662963 C16.5410087,7.41770826 16.4310438,7.05878689 16.3410724,6.69986553 C16.311082,6.58022507 16.2810916,6.54034492 16.1611298,6.61013518 C15.8212381,6.80953594 15.4813464,6.99896667 15.1014675,7.2183075 Z M4.9547012,12.871319 C4.48485094,12.6120981 4.07498156,12.3728171 3.66511218,12.1435063 C3.6051313,12.1135962 3.54515041,12.0438059 3.4651759,12.0936561 C3.38520139,12.1435063 3.3951982,12.2432066 3.41519183,12.322967 C3.50516316,12.6818883 3.61512811,13.0408097 3.70509944,13.3997311 C3.73508988,13.5193715 3.76508032,13.5492816 3.88504209,13.4794914 C4.22493377,13.2701206 4.57482226,13.0806898 4.9547012,12.871319 Z M1.69973853,14.6260457 C1.71053473,14.6445348 1.72400912,14.6613327 1.73972579,14.6758959 C2.30954419,14.3568547 2.88935941,14.0278434 3.45917781,13.7088022 C3.58913639,13.6290419 3.48916825,13.5791917 3.43918418,13.5193715 C3.29505039,13.3873048 3.1582252,13.2475178 3.0293148,13.1006299 C2.88935941,12.9311393 2.81938171,12.9909595 2.71941357,13.1405101 C2.37552316,13.639012 2.03563148,14.1275438 1.69973853,14.6260457 Z M15.0514834,5.28412013 L15.0514834,6.8494161 C15.0514834,7.0089367 15.1114643,7.01890674 15.2414229,6.94911648 C15.5613209,6.76965579 15.881219,6.59019511 16.2111139,6.40076439 C15.8312349,6.03187298 15.4613528,5.68292165 15.0514834,5.28412013 Z M1.84569202,5.20435983 C2.25556139,5.44364074 2.63544033,5.66298158 3.00532245,5.88232241 C3.71509625,6.30106401 3.70509944,6.30106401 3.88504209,5.48352089 C3.91503253,5.34394036 3.88504209,5.29409017 3.74508669,5.28412013 C3.13528103,5.25421002 2.51547856,5.1445396 1.84569202,5.20435983 Z M4.91471394,7.18839739 C4.53483501,6.96905655 4.20494014,6.76965579 3.86504846,6.57025503 C3.81506439,6.54034492 3.74508669,6.52040484 3.72509307,6.61013518 C3.59513448,7.07872697 3.4651759,7.54731875 3.3252205,8.07573077 C3.88504209,7.77662963 4.37488598,7.49746857 4.91471394,7.18839739 Z M4.99468845,14.7955364 C4.99468845,14.2770944 4.98469164,13.7785925 4.99468845,13.2900606 C4.99468845,13.0806898 4.93470757,13.0607498 4.76476173,13.1604501 C4.46485731,13.3399108 4.15495607,13.5094015 3.83505802,13.6888622 C4.21493696,14.0477835 4.58481908,14.4067049 4.99868718,14.7955364 L4.99468845,14.7955364 Z M15.1314579,12.9012292 C15.5013401,13.12057 15.8112413,13.3100007 16.1311393,13.4894614 C16.1911202,13.5293415 16.2810916,13.6091019 16.3210788,13.4695213 C16.4510374,13.0009295 16.580996,12.5323377 16.7209514,12.0039257 C16.1611298,12.3129969 15.6712859,12.592158 15.1314579,12.9012292 Z M10.0830668,15.8723005 L10.0830668,17.068705 C10.0830668,17.1883455 10.1230541,17.2182556 10.233019,17.1883455 C10.6928725,17.068705 11.1527259,16.9390945 11.6725603,16.809484 C11.1227355,16.4804728 10.6328916,16.1913417 10.0830668,15.8723005 Z M8.37361162,3.2801425 C8.92343639,3.59918371 9.42327709,3.89828485 9.96310505,4.20735603 L9.96310505,3.02092151 C9.96310505,2.88134098 9.90312417,2.87137094 9.79315922,2.90128105 C9.33330577,3.02092151 8.88344913,3.14056197 8.37361162,3.2801425 Z M9.8531401,19.5512445 C9.87313373,19.5512445 9.88313054,19.5412745 9.90312417,19.5412745 L9.90312417,18.8633119 C9.90312417,18.634001 9.91312098,18.4146602 9.91312098,18.1853493 C9.91312098,17.3877462 9.91312098,17.3977163 9.15336311,17.6170571 C8.98341727,17.6669073 8.96342365,17.7167575 9.03340134,17.8663081 C9.31331214,18.4246302 9.58322612,18.9929224 9.8531401,19.5512445 Z M2.44550086,8.58420271 C2.67542759,8.4246821 3.02531608,8.38480195 3.12528422,8.135551 C3.30522687,7.69686932 3.3951982,7.2183075 3.5351536,6.7198056 C3.50730183,6.73057149 3.48052598,6.74392355 3.45517908,6.75968575 C3.17526829,7.03884682 2.8953575,7.30803784 2.6154467,7.58719891 C2.21557414,7.99597046 2.21557414,7.99597046 2.44550086,8.58420271 Z M10.2030286,0.548352089 C10.1730382,0.548352089 10.1530445,0.558322127 10.1230541,0.558322127 L10.1230541,1.91424729 C10.1230541,2.73179041 10.1630413,2.75173048 10.9427928,2.44265931 C11.0727514,2.39280912 11.0627546,2.33298889 11.0127705,2.23328851 C10.7428566,1.68493642 10.4729426,1.11664425 10.2030286,0.548352089 Z M16.5310119,13.2601505 C16.6509737,13.2900606 16.7009577,13.2103003 16.7609386,13.1604501 C17.0408494,12.8912591 17.3207602,12.6120981 17.600671,12.332937 C17.76062,12.1734164 17.7806137,11.7447047 17.6306615,11.5752141 C17.6122978,11.5546935 17.5877336,11.5406944 17.5606838,11.5353339 C17.4207284,11.5253639 16.900894,11.9241654 16.8609068,12.083686 C16.7509418,12.4625475 16.6409769,12.851379 16.5310119,13.2601505 Z M4.98469164,15.8423904 C4.90471713,15.5532593 5.10465341,15.2441881 4.89472031,14.9949371 C4.6048127,14.6459858 4.26492103,14.3468847 3.94502298,14.0278434 C3.98501023,14.426645 4.104972,14.7855663 4.16495289,15.1644278 C4.22493377,15.6130795 4.46485731,15.8324203 4.90471713,15.8623304 C4.90471713,15.8623304 4.91471394,15.8523604 4.98469164,15.8423904 Z M16.1011489,6.04184302 C16.1190726,6.03413957 16.1358829,6.02408039 16.151133,6.01193291 C16.0311712,5.55331116 15.9112094,5.09468941 15.7912477,4.6460377 C15.7312668,4.41672683 15.3913751,4.19738599 15.1614484,4.24723618 C15.1328322,4.24776735 15.1064578,4.26279806 15.0914707,4.28711633 C15.0314898,4.36687664 15.0714771,5.01492911 15.1414548,5.09468941 C15.4613528,5.40376059 15.7812509,5.7228018 16.1011489,6.04184302 Z M9.58322612,2.80158067 L9.58322612,2.73179041 C9.08338542,2.59220988 8.5735479,2.46259938 8.07370719,2.33298889 C7.96374224,2.30307877 7.54387605,2.62211999 7.53387923,2.73179041 C7.53387923,2.75173048 7.54387605,2.80158067 7.56386967,2.81155071 C7.82378684,2.93119117 8.02372312,3.22032227 8.3636148,3.14056197 C8.77348418,3.02092151 9.18335356,2.91125109 9.58322612,2.80158067 Z M10.4629458,17.2880459 C10.4645551,17.311751 10.4611492,17.3355287 10.4529489,17.3578361 C10.9427928,17.4874466 11.4426335,17.6270272 11.9324774,17.7566377 C12.062436,17.7865478 12.4823022,17.4974167 12.5022958,17.3678062 C12.501632,17.3400714 12.4948032,17.3128293 12.4823022,17.2880459 C12.222385,17.1684054 12.0324456,16.8892443 11.7125475,16.9590346 C11.2966801,17.048765 10.8728151,17.1783754 10.4629458,17.2880459 Z M1.98564741,4.94513884 C1.98720332,4.96236924 1.98373169,4.97968087 1.9756506,4.99498903 C2.56546263,5.04483922 3.15527466,5.08471937 3.73508988,5.13456956 C3.84505483,5.1445396 3.9650166,5.17444971 4.00500386,5.01492911 C4.05498793,4.81552835 4.104972,4.62609763 4.16495289,4.38681671 C3.41519183,4.57624744 2.69941994,4.76567816 1.98564741,4.94513884 Z M18.0705213,15.1345177 C18.0605245,15.1245476 18.0605245,15.1046075 18.0505276,15.0946375 C17.4707124,15.0447873 16.900894,15.0049072 16.3210788,14.965027 C16.2111139,14.955057 16.0811553,14.9151768 16.041168,15.0746974 C15.9911839,15.2740982 15.9411999,15.483469 15.881219,15.7227499 C16.6409769,15.5133791 17.3507507,15.3239484 18.0705213,15.1345177 Z M9.61321656,19.4415741 C9.42327709,19.0328025 9.22334081,18.624031 9.03340134,18.2152594 C8.79347781,17.7067875 8.79347781,17.7167575 8.24365303,17.8663081 C8.05371356,17.9161583 8.04371675,17.9660084 8.18367215,18.0856489 C8.65352241,18.5243306 9.13336949,18.9729823 9.61321656,19.4415741 Z M18.410413,5.82250218 C18.3804225,5.81253215 18.3504321,5.79259207 18.3204416,5.78262203 C18.1005117,6.09169321 17.8905786,6.40076439 17.6706487,6.70983556 C17.2707762,7.28809777 17.2707762,7.28809777 17.8006073,7.76665959 C17.8106041,7.77662963 17.8405946,7.77662963 17.870585,7.78659967 C18.0605245,7.12857716 18.2304703,6.47055465 18.410413,5.82250218 Z M11.9524711,2.1535282 C11.792522,1.87436714 10.7328597,0.837483191 10.4829394,0.737782811 C10.6528852,1.10667422 10.8128343,1.43568547 10.9727833,1.77466676 C11.2726877,2.40277915 11.2826845,2.40277915 11.9424742,2.17346828 C11.9432032,2.16581272 11.9467675,2.15870312 11.9524711,2.1535282 Z M15.0314898,15.473499 C15.0414866,15.9620308 14.9515153,15.9420907 15.4813464,15.8124802 C15.6612891,15.7626301 15.9711903,15.2043079 15.8912158,15.0049072 C15.8112413,14.8055064 15.5813146,14.9052068 15.4213655,14.8952368 C15.1114643,14.8653266 15.0314898,15.0049072 15.0314898,15.473499 Z M5.01468208,4.61612759 L5.01468208,4.49648713 C5.04467252,4.24723618 4.98469164,4.11762569 4.69478403,4.23726614 C4.52483819,4.30705641 4.32490191,4.2771463 4.28491465,4.53636728 C4.25492421,4.71582797 4.19494333,4.89528865 4.15495607,5.07474933 C4.14495926,5.13456956 4.18494651,5.15450964 4.2449274,5.17444971 C4.7447681,5.3539104 5.01468208,5.15450964 5.01468208,4.61612759 Z M17.8106041,8.02588058 C17.7006392,7.85638993 17.5106997,7.72677944 17.3707443,7.55728879 C17.2607793,7.4276783 17.170808,7.38779815 17.0808367,7.57722887 C17.0308526,7.66695921 16.9708717,7.74671951 16.9108908,7.83644986 C16.8565861,7.9010482 16.8321353,7.98550169 16.8435557,8.06902681 C16.8549761,8.15255194 16.9012072,8.22739281 16.9708717,8.27513153 C17.1480219,8.40007312 17.335273,8.51012196 17.5306933,8.60414278 C17.600671,8.64402293 17.6506551,8.62408286 17.6706487,8.55429259 C17.7206328,8.37483191 17.76062,8.2153113 17.8106041,8.02588058 Z M7.98373587,17.7765777 C8.19366896,17.7267275 8.41359887,17.6669073 8.63352878,17.6070871 C8.68351285,17.597117 8.73349692,17.5472669 8.69350967,17.4874466 C8.55355427,17.2880459 8.5735479,16.9590346 8.24365303,16.9191545 C8.15368171,16.9091844 7.52388242,17.2082856 7.48389516,17.2880459 C7.47099898,17.3051747 7.46726947,17.3274918 7.47389835,17.3478661 C7.47389835,17.4176564 7.88376772,17.7666077 7.98373587,17.7765777 Z M15.0314898,17.9161583 C15.0514834,17.9161583 15.0814739,17.9261283 15.1014675,17.9261283 C15.2814101,17.2780758 15.451356,16.6200533 15.6412955,15.9321207 C15.5332635,15.9661096 15.423046,15.9927574 15.3114006,16.011881 C15.0714771,16.0318211 15.0114962,16.1514615 15.021493,16.3807724 C15.0414866,16.8892443 15.0314898,17.4076863 15.0314898,17.9161583 Z M5.01468208,2.17346828 C4.99468845,2.16349824 4.96469801,2.16349824 4.94470438,2.1535282 C4.76476173,2.80158067 4.58481908,3.45960318 4.40487642,4.12759573 C5.01468208,4.04783542 5.01468208,4.04783542 5.01468208,3.49948333 L5.01468208,2.17346828 Z M3.19926064,12.1335362 C3.19926064,11.9042254 2.74940401,11.4854838 2.49948366,11.4954538 C2.27955375,11.5054238 2.35952826,11.7646448 2.28955056,11.9042254 C2.27955375,11.9241654 2.27955375,11.9441055 2.26955693,11.9640456 C2.24956331,12.073716 2.7394072,12.6719183 2.83937534,12.6519782 C2.84937215,12.6519782 2.85936897,12.6420082 2.86936578,12.6420082 C2.99932436,12.4625475 3.13528103,12.3030269 3.19926064,12.1335362 Z M15.1354567,2.16349824 L15.0754758,2.16349824 C15.0754758,2.66200014 15.1054662,3.16050204 15.065479,3.65900394 C15.0354885,3.99798523 15.1754439,4.10765565 15.4653515,4.15750584 C15.6153037,4.18741595 15.6652878,4.16747588 15.6253006,4.01792531 C15.4613528,3.39978295 15.3014038,2.7816406 15.1314579,2.16349824 L15.1354567,2.16349824 Z M4.37888471,15.9221507 C4.55882736,16.5901432 4.7287732,17.2381957 4.90871585,17.8862481 C4.92870948,17.8862481 4.94870311,17.8762781 4.96869674,17.8762781 L4.96869674,16.5203529 C4.96869674,16.021851 4.96869674,16.021851 4.48884966,15.9121806 C4.46485731,15.9022106 4.44486368,15.9121806 4.37488598,15.9221507 L4.37888471,15.9221507 Z M14.2757307,1.81454691 L14.2457402,1.75472669 C13.7059122,1.89430722 13.1760811,2.02391771 12.64625,2.17346828 C12.5662754,2.19340836 12.3463455,2.16349824 12.42632,2.32301885 C12.5062946,2.48253946 12.6362531,2.74176045 12.8361894,2.64206007 C13.3220346,2.39280912 13.7958836,2.08373794 14.2717319,1.81454691 L14.2757307,1.81454691 Z M0.766036096,9.52138628 C1.14591503,9.31201548 1.49580352,9.12258476 1.8356952,8.923184 C2.29554865,8.66396301 2.29554865,8.66396301 2.15559325,8.15549107 C2.15559325,8.14552103 2.12560281,8.135551 2.09561237,8.10564088 C1.65575255,8.56426263 1.22588954,9.02288438 0.766036096,9.52138628 Z M14.1017861,18.3348999 C14.1108701,18.3032821 14.1243286,18.2730814 14.1417733,18.2451695 L13.0621174,17.6170571 C12.6622449,17.3777762 12.5422831,17.4176564 12.33235,17.8663081 C12.922162,18.0258287 13.5119741,18.1753792 14.1017861,18.3348999 Z M19.2401485,9.56126643 C19.2501453,9.55129639 19.2501453,9.53135631 19.2601422,9.52138628 C18.8202823,9.0827046 18.3804225,8.64402293 17.9305659,8.20534126 C17.9305659,8.39477198 17.6606519,8.62408286 17.8805818,8.78360347 C18.3104448,9.07273457 18.7802951,9.30204544 19.2401485,9.56126643 Z M19.2801358,10.1794088 C19.2696116,10.1684161 19.2626454,10.154521 19.2601422,10.1395286 L17.6506551,10.1395286 C17.5606838,10.1395286 17.4007347,10.1096185 17.4607156,10.2791092 C17.5007029,10.3987496 17.4307252,10.6579706 17.6806455,10.5981504 C18.2204735,10.4685399 18.7503046,10.3189893 19.2801358,10.1794088 Z M0.816020166,9.89027768 C0.816020166,9.91021776 0.82601698,9.94012787 0.82601698,9.96006795 L2.45549768,9.96006795 C2.57545945,9.96006795 2.64543714,9.91021776 2.59545307,9.80054734 C2.545469,9.69087692 2.62544352,9.4216859 2.36552635,9.48150612 C1.8356952,9.61111662 1.32585768,9.76066719 0.816020166,9.89027768 Z M5.10465341,17.8762781 C5.11465022,17.8762781 5.12464704,17.8862481 5.13464385,17.8862481 C5.24460881,17.4675066 5.36457058,17.0387949 5.47453553,16.6200533 C5.58450049,16.2013117 5.5944973,16.1913417 5.15463748,16.1016113 C5.14464067,16.1016113 5.12464704,16.1215514 5.09465659,16.1315215 C5.10465341,16.7097837 5.10465341,17.2880459 5.10465341,17.8762781 Z M14.9415185,2.25322858 L14.8955331,2.25322858 C14.7655745,2.75173048 14.6256191,3.24026235 14.4956606,3.73876424 C14.4256829,4.01792531 14.6856,3.91822493 14.795565,3.96807512 C14.9755076,4.05780546 14.9355204,3.88831481 14.9355204,3.79858447 C14.9415185,3.2801425 14.9415185,2.77167056 14.9415185,2.25322858 Z M5.67447181,2.11364805 C5.64448137,2.13358813 5.61449093,2.16349824 5.58450049,2.18343832 C5.83442084,2.62211999 6.08434119,3.05083162 6.33426154,3.48951329 C6.39424243,3.59918371 6.46422012,3.58921367 6.5142042,3.49948333 C6.57418508,3.38981292 6.85409587,3.34993276 6.68415003,3.150532 C6.36425198,2.79161064 6.01436349,2.45262934 5.67447181,2.11364805 Z M5.3145865,17.8064878 C5.43454827,17.8164579 5.44454509,17.7366976 5.48453234,17.6768773 C5.70446225,17.3079859 5.91439535,16.9490646 6.12432845,16.5801732 C6.1643157,16.5103829 6.3042711,16.3807724 6.10433482,16.3508623 C5.98437305,16.3408923 5.78443677,16.1016113 5.70446225,16.3907424 C5.56450686,16.8593342 5.44454509,17.3378961 5.3145865,17.8064878 Z M14.7215886,2.30307877 C14.6963172,2.29178289 14.6692423,2.28503229 14.641614,2.2831387 C14.3916937,2.71185033 14.1417733,3.13059193 13.891853,3.55930356 C13.8518657,3.62909383 13.7918848,3.73876424 13.9318402,3.73876424 C14.0717956,3.73876424 14.2517383,3.95810508 14.321716,3.72879421 C14.481665,3.26020242 14.5956287,2.77167056 14.7215886,2.30307877 Z M14.3617033,17.9460684 C14.4095029,17.8507004 14.3936174,17.735839 14.321716,17.6569373 L13.7518976,16.6699035 C13.7119103,16.6001132 13.6619263,16.4206526 13.5519613,16.5901432 C13.4719868,16.6898436 13.2020728,16.7396938 13.3920123,16.9590346 C13.7019135,17.2880459 14.0218116,17.6170571 14.3617033,17.9460684 Z M12.7962022,17.2780758 C13.2960429,17.5672069 13.7359027,17.836398 14.1857593,18.105589 C14.2357434,17.9560384 14.1257784,17.9061882 14.0558007,17.836398 C13.825874,17.597117 13.5759537,17.3777762 13.3560238,17.1285253 C13.2060715,16.9690047 13.1061034,16.9490646 12.9761448,17.1285253 C12.9421557,17.1783754 12.8821748,17.2082856 12.7962022,17.2780758 Z M19.1241855,10.4685399 C18.6243448,10.48848 18.1644913,10.6280605 17.7046379,10.767641 C17.5246952,10.8274613 17.6646506,10.9969519 17.6746474,11.1066223 C17.6846443,11.1764126 17.7146347,11.2561729 17.8146028,11.1963527 C18.2504639,10.9570717 18.6803269,10.7078208 19.1201868,10.4685399 L19.1241855,10.4685399 Z M5.89840045,2.04385779 C5.88840363,2.06379786 5.87840682,2.09370798 5.86841001,2.11364805 C6.13832399,2.38283908 6.41823478,2.64206007 6.66815513,2.92122113 C6.83810097,3.11065185 6.95806274,3.10068181 7.08802132,2.91125109 C7.11801177,2.8614009 7.18798946,2.84146083 7.17799265,2.75173048 C6.75412773,2.54235969 6.36425198,2.22331847 5.89840045,2.04385779 Z M2.75940082,10.4186897 L2.7554021,10.4186897 C2.85537024,10.7975511 2.95533838,11.1764126 3.06930206,11.5851841 C2.30954419,11.2162927 2.40951233,11.4256635 2.75940082,10.4186897 Z M16.9708717,8.47453229 C17.6506551,8.82348362 17.6506551,8.82348362 17.3107634,9.75069715 C17.1908016,9.2920754 17.0908335,8.91321396 16.9708717,8.47453229 Z M7.91375817,16.8294241 C7.25396844,17.2681058 7.23397481,17.2581358 6.65415959,16.4904428 C7.0840226,16.6100833 7.48389516,16.7097837 7.91375817,16.8294241 Z M13.4220027,3.59918371 C12.9521525,3.47954326 12.5622767,3.36987284 12.1424105,3.25023238 C12.8621811,2.81155071 12.5822703,2.71185033 13.4220027,3.59918371 Z M14.8815376,15.3937386 C14.911528,16.0517612 14.8415503,16.1215514 14.1217797,16.1315215 C14.3717001,15.8922405 14.641614,15.6330196 14.8815376,15.3937386 Z M5.16463429,15.2740982 C5.03467571,15.8423904 5.07466297,15.9221507 5.4545419,16.001911 C5.51452279,16.011881 5.61449093,16.1115814 5.65447818,15.9720009 C5.68446863,15.8822705 5.71445907,15.8025102 5.62448774,15.7227499 C5.47453553,15.5831694 5.32458332,15.4336188 5.16463429,15.2740982 Z M14.861544,4.88531861 C15.0014994,4.23726614 14.9715089,4.1475358 14.6016268,4.07774554 C14.5316491,4.0677755 14.4416778,4.00795527 14.3916937,4.12759573 C14.3490285,4.21047551 14.3652167,4.31138083 14.431681,4.37684668 C14.5716363,4.52639725 14.6955968,4.68591785 14.861544,4.88531861 Z M7.94374861,3.23029231 C7.39392383,2.83149079 7.38392702,2.83149079 7.14400348,3.09071178 C7.09401941,3.14056197 6.98405446,3.18044212 7.05403216,3.29011254 C7.09872461,3.38868853 7.21189008,3.43643799 7.31394932,3.39978295 C7.50388879,3.32999269 7.71382189,3.29011254 7.94374861,3.23029231 Z M17.0208558,11.6150943 C17.5506869,11.4356336 17.6106678,11.3558733 17.4907061,11.016892 C17.4707124,10.9471017 17.4707124,10.8474013 17.3507507,10.8573714 C17.2607793,10.8673414 17.1808048,10.8972515 17.1608112,10.9869819 C17.1108271,11.1863826 17.010859,11.3857834 17.0208558,11.6150943 Z M3.05530652,8.45459221 C2.45549768,8.70384316 2.43550405,8.72378324 2.545469,9.05279449 C2.56546263,9.12258476 2.56546263,9.23225517 2.67542759,9.23225517 C2.78616611,9.24173648 2.8848016,9.16268812 2.89935622,9.05279449 C2.94534157,8.87333381 2.99932436,8.68390309 3.05530652,8.45459221 Z M3.27523643,12.3827872 C3.36520776,12.7018284 3.44518227,13.0208696 3.5351536,13.3598509 C2.88536068,12.9012292 2.86536705,12.8414089 3.27523643,12.3827872 Z M12.1024233,16.8493642 C12.652248,17.2481657 12.652248,17.2481657 12.8921716,16.9889447 C12.9421557,16.9291245 13.0521206,16.8892443 12.9921397,16.789544 C12.9394929,16.6940554 12.8245384,16.6515936 12.7222257,16.6898436 C12.5322863,16.7496638 12.33235,16.789544 12.1024233,16.8493642 Z M8.68351285,17.0387949 C9.02340453,17.1285253 9.31331214,17.2082856 9.63321019,17.2880459 C8.98341727,17.6170571 8.86345551,17.587147 8.68351285,17.0387949 Z M3.91503253,5.99199283 C4.01500067,5.28412013 4.06498474,5.23426994 4.58481908,5.39379055 C4.35489235,5.60316135 4.12496563,5.80256211 3.91503253,5.99199283 Z M16.1411362,13.9879633 C15.9611935,14.9151768 16.0211744,14.8055064 15.4613528,14.705806 C15.6512923,14.436615 15.8912158,14.2471843 16.1411362,13.9879633 Z M13.5801061,6.42570281 C13.728864,5.86733139 13.8577875,5.30895998 14.0263797,4.76055948 C14.1255516,4.47140285 14.0462141,4.28195541 13.8280359,4.09250796 C13.6991124,3.98282786 13.6396093,3.95291511 13.5404373,4.12242072 C13.3024248,4.5511702 13.054495,4.97991968 12.796648,5.40866916 C12.7388269,5.51692501 12.7351517,5.64625279 12.7867308,5.75765129 C12.9156543,6.1465171 13.2825904,6.22628445 13.5801061,6.42570281 Z M14.6511628,1.83908046 C14.0362969,2.138208 13.4610998,2.52707381 12.8958199,2.85611411 C13.1536669,3.1253289 13.3916795,3.38457277 13.6594436,3.66375848 C13.8974562,3.24497992 14.145386,2.82620136 14.3833986,2.40742279 C14.4825705,2.22794627 14.6412456,2.06841158 14.6511628,1.83908046 Z M5.34883721,18.3708628 L5.36867159,18.3908046 C5.98353746,18.0916771 6.54881737,17.7127822 7.16368324,17.3638 C6.89591908,17.0846143 6.66782367,16.8054286 6.36039074,16.5561557 C6.02320623,17.1643817 5.68602172,17.7726077 5.34883721,18.3708628 Z M5.39670322,18.1613778 L5.44703436,18.1413778 L5.4269019,18.1213778 C5.41683567,18.1313778 5.40676945,18.1513778 5.39670322,18.1613778 Z M1.64803944,5.27123106 C1.67219839,5.25123106 1.68830435,5.22123106 1.70843681,5.20123106 C1.67823812,5.20123106 1.65810566,5.19123106 1.62790698,5.19123106 C1.63797321,5.22123106 1.63797321,5.24123106 1.64803944,5.27123106 Z" id="icon_POWR__Combined-Shape"></path>
                </g>
            </g>
        </g>
    </g>
</svg>
