<svg xmlns="http://www.w3.org/2000/svg" viewBox="0 0 30 30">
  <defs>
    <style>
      .icon_REP__a {
        fill: none;
      }

      .icon_REP__b {
        fill: #fff;
      }
    </style>
  </defs>
  <rect class="icon_REP__a" width="30" height="30" />
  <path class="icon_REP__b" d="M8.644,20.34a.825.825,0,0,1-.408-.108l-7.857-4.7A.781.781,0,0,1,.1,14.484L7.944.408a.778.778,0,0,1,1.368,0L17.16,14.484a.8.8,0,0,1-.264,1.059L9.051,20.232A.825.825,0,0,1,8.644,20.34Zm2.94-7.563v0a4.122,4.122,0,0,0,.5.79c-.03.047-.061.1-.091.148s-.048.081-.071.118a.011.011,0,0,1-.005.009.015.015,0,0,0-.007.013l-.129.192a.093.093,0,0,0-.018.022.138.138,0,0,1-.016.021l-.036.049a.761.761,0,0,1-.081.1.1.1,0,0,1-.022.03.127.127,0,0,0-.02.024,1.089,1.089,0,0,1-.15.171l-.021.022a.806.806,0,0,0-.077.07.847.847,0,0,1-.074.068.1.1,0,0,0-.03.022.147.147,0,0,1-.024.02.079.079,0,0,1-.029.031l-.013.01a3.279,3.279,0,0,1-.513.375l-.032.021c-.088.052-.172.1-.258.139l-.021.012c-.433.187-1.327.72-1.327,1.176V19.32L16.075,15.1c-.635-.3-1.961-.956-2.922-1.455a3.458,3.458,0,0,1-1.326-1.992l-.1-.375a2.778,2.778,0,0,0-.183-.684.315.315,0,0,1-.033-.068c-.006-.016-.013-.033-.021-.049a.293.293,0,0,0-.023-.053.38.38,0,0,1-.02-.043c-.01-.017-.019-.032-.027-.048s-.017-.032-.027-.048-.019-.032-.027-.048-.017-.032-.027-.048a.289.289,0,0,1-.034-.052c-.006-.011-.013-.023-.02-.035l-.063-.1a.217.217,0,0,0-.033-.056c-.007-.01-.014-.02-.021-.031l-.063-.1c-.013-.013-.026-.03-.039-.046l-.024-.029a.758.758,0,0,1-.075-.086L10.909,9.6l-.087-.087-.063-.063c-.017-.017-.032-.03-.048-.043s-.032-.027-.048-.044a.324.324,0,0,0-.031-.026.34.34,0,0,1-.032-.028.635.635,0,0,0-.108-.086.191.191,0,0,0-.054-.042l-.029-.024a.478.478,0,0,0-.088-.063.031.031,0,0,0-.021-.012,3.73,3.73,0,0,0-.492-.258A3.029,3.029,0,0,0,8.866,8.6a2.654,2.654,0,0,0,.545-.7,3.331,3.331,0,0,1,.535.15c.031.01.064.024.1.037s.065.027.1.038a.011.011,0,0,1,.009.005.014.014,0,0,0,.012.006l.06.026c.056.024.108.046.154.07a.011.011,0,0,1,.009.005.014.014,0,0,0,.012.006l.044.021a1.45,1.45,0,0,1,.161.087.011.011,0,0,1,.009.006.014.014,0,0,0,.012.007c.07.038.13.079.189.119l.015.01.012.012a1.82,1.82,0,0,1,.193.139l.012.012.192.162a3.95,3.95,0,0,1,1.12,1.647,2.069,2.069,0,0,1,.117.609l.1.383c.036.123.364,1.21.931,1.5.824.428,1.937.983,2.622,1.317L8.995,1.488V7.023c0,1.151-1.729,1.889-1.746,1.9l-.333.162a3.376,3.376,0,0,0-.654.558.184.184,0,0,1-.021.033l-.059.075-.058.075a.014.014,0,0,0-.008,0,.011.011,0,0,0,0,.009A1.6,1.6,0,0,0,5.995,10a.2.2,0,0,1-.022.032c-.016.027-.03.051-.043.075s-.027.048-.043.075a.263.263,0,0,1-.022.033.709.709,0,0,0-.073.126l-.022.045-.006.015a.056.056,0,0,1-.016.026c-.017.035-.034.078-.052.124l-.011.026a.047.047,0,0,0-.009.018.062.062,0,0,1-.012.024l-.063.192a.033.033,0,0,1-.006.016.036.036,0,0,0-.006.017.77.77,0,0,1-.023.091c-.007.024-.014.048-.019.071a.074.074,0,0,1-.006.026.078.078,0,0,0-.006.028c-.005.031-.01.06-.014.088s-.012.078-.019.115v.022c0,.017,0,.032-.007.048a.859.859,0,0,0-.014.135v.054a1.3,1.3,0,0,0-.013.213v.054a3.187,3.187,0,0,0,.139.867,4.165,4.165,0,0,0-.879-.333,3.788,3.788,0,0,1-.042-.579V11.58a.4.4,0,0,0,.013-.117A.373.373,0,0,1,4.7,11.4a.369.369,0,0,0,.006-.058.2.2,0,0,1,.006-.044.2.2,0,0,0,.006-.044c0-.018.006-.036.008-.054a.438.438,0,0,1,.013-.075.4.4,0,0,0,.008-.042.307.307,0,0,1,.012-.055.383.383,0,0,0,.008-.047.316.316,0,0,1,.012-.061.16.16,0,0,0,.008-.032.134.134,0,0,1,.013-.043c0-.02.011-.043.019-.067s.017-.055.023-.083a.162.162,0,0,0,.008-.026.125.125,0,0,1,.013-.037.6.6,0,0,0,.041-.117.563.563,0,0,1,.022-.054L5,10.305a.391.391,0,0,1,.021-.054c.01-.027.021-.051.031-.075s.021-.048.031-.075a.027.027,0,0,0,.012-.021c.007-.014.014-.029.022-.046a.962.962,0,0,1,.054-.1l.006-.016a.059.059,0,0,1,.014-.025l.1-.162a.012.012,0,0,1,.005-.009A.016.016,0,0,0,5.3,9.7c.017-.027.032-.051.048-.075s.031-.048.048-.075A.012.012,0,0,1,5.4,9.547.016.016,0,0,0,5.4,9.534c.021-.027.04-.054.059-.081s.037-.054.058-.081l.012-.012a2.283,2.283,0,0,1,.258-.3L5.8,9.048a2.416,2.416,0,0,1,.288-.279,4.143,4.143,0,0,1,.526-.374l.021-.013L6.7,8.344a2.064,2.064,0,0,1,.213-.112L6.979,8.2c.92-.416,1.263-.924,1.263-1.146V1.5L1.189,14.169a15.046,15.046,0,0,1,2.633-1.242,1.276,1.276,0,0,1,.38-.055,2.844,2.844,0,0,1,1.354.439,5.33,5.33,0,0,1,.834.6l.279.257a3.032,3.032,0,0,0,.588.375.314.314,0,0,1,.037.018.422.422,0,0,0,.05.024.046.046,0,0,0,.018.009.057.057,0,0,1,.023.012.48.48,0,0,0,.1.042.047.047,0,0,0,.018.009.062.062,0,0,1,.024.012,3.031,3.031,0,0,0,.878.192,2.665,2.665,0,0,0-.558.706c-.181-.045-.359-.1-.545-.162a.057.057,0,0,1-.028-.008.033.033,0,0,0-.015,0,.391.391,0,0,1-.054-.021c-.139-.059-.255-.113-.363-.171a.033.033,0,0,0-.022-.012l-.129-.063a3.046,3.046,0,0,1-.525-.355l-.022-.021a1.714,1.714,0,0,1-.212-.183L5.9,14.535a3.744,3.744,0,0,0-1.7-.876.482.482,0,0,0-.147.021,14.18,14.18,0,0,0-2.88,1.413L8.232,19.3V16.41c0-1.132,1.737-1.865,1.755-1.872l.063-.032a2.982,2.982,0,0,0,.922-.706c.006,0,.008,0,.011-.008a.073.073,0,0,1,.01-.012.779.779,0,0,0,.117-.138.089.089,0,0,0,.017-.021.118.118,0,0,1,.016-.021,1.636,1.636,0,0,0,.108-.15c.006,0,.008,0,.011-.008a.073.073,0,0,1,.01-.012c.016-.031.035-.063.053-.095s.038-.065.055-.1a2.953,2.953,0,0,0,.2-.457Z"
    transform="translate(6.368 4.401)" />
</svg>
