<svg xmlns="http://www.w3.org/2000/svg" viewBox="0 0 30 30">
  <defs>
    <style>
      .icon_ZEC__a {
        fill: none;
      }

      .icon_ZEC__b {
        fill: #fff;
      }
    </style>
  </defs>
  <rect class="icon_ZEC__a" width="30" height="30" />
  <g transform="translate(8.886 5.484)">
    <path class="icon_ZEC__b" d="M4.724,13.58h6.5v3.25H7.389v2.75H4.053V16.915h-4A13.29,13.29,0,0,1,.139,13.75c.085-.5.665-1,1.085-1.5,1.25-1.5,2.5-3,3.835-4.5.5-.585,1-1.085,1.585-1.75H.394V2.75H4.059V0h3.25V2.665h4a13.29,13.29,0,0,1-.085,3.165c-.085.5-.665,1-1.085,1.5-1.25,1.5-2.5,3-3.835,4.5-.5.585-1,1.165-1.58,1.75Z" />
  </g>
</svg>
