<?xml version="1.0" encoding="UTF-8"?>
<svg width="30px" height="30px" viewBox="0 0 30 30" version="1.1" xmlns="http://www.w3.org/2000/svg" xmlns:xlink="http://www.w3.org/1999/xlink">
    <g id="icon_ZRX__Icons" stroke="none" stroke-width="1" fill="none" fill-rule="evenodd">
        <g id="icon_ZRX__icons" transform="translate(-60.000000, -252.000000)">
            <g id="icon_ZRX__ZRX" transform="translate(60.000000, 252.000000)">
                <path d="M7.4618816,27.9711419 C6.76916535,27.5677034 6.11170453,27.1103637 5.49524585,26.6048694 C6.13873891,26.079008 7.01727742,25.3330805 7.46099473,24.9942631 C8.24035388,24.3852212 9.01971304,23.810015 9.86684255,23.1671375 C9.66353147,23.0317949 9.52799074,22.9302879 9.35856484,22.8287809 C8.13869834,21.9152181 7.15602811,20.7986413 6.44443931,19.4452149 C6.30889859,19.2083653 6.34278377,19.039187 6.54609486,18.8361731 C7.25768365,18.1594599 7.93538726,17.448911 8.61309087,16.7383622 C8.68086123,16.6706909 8.71474641,16.6030195 8.78251677,16.5015126 C6.63907754,13.6801991 4.24662953,10.2430677 2.08248446,7.37054712 C2.49951278,6.66599216 2.9725414,5.99850266 3.49544157,5.37420741 C3.57129875,5.48523509 3.68764965,5.596296 3.76751005,5.70793718 C4.27578776,6.38465037 4.78406547,7.09519922 5.32622836,7.80574807 C5.83450607,8.48246126 6.34278377,9.12533879 6.88494666,9.83588764 C6.95271702,9.73438066 7.02048738,9.63287368 7.08825775,9.56520236 C8.0370428,8.24561164 9.18913894,7.1967062 10.6462017,6.45232169 C10.883398,6.35081471 11.0528239,6.38465037 11.2222498,6.55382866 C11.832183,7.1967062 12.4760015,7.77191241 13.0859347,8.41478994 C13.2892458,8.65163956 13.4586717,8.6178039 13.6958679,8.4486256 C15.5256677,7.12903488 17.3893526,5.77560849 19.2530376,4.45601777 C20.2895424,3.74446209 21.604363,2.86018324 22.6654164,2.10383916 C23.4658596,2.58064455 24.2181544,3.12985543 24.9132651,3.74243612 C24.7465732,3.86957179 24.6178029,3.97051942 24.5823744,4 C23.2947376,4.98123413 22.0071007,5.92863259 20.7194639,6.90986672 C20.6516935,6.97753804 20.550038,7.04520936 20.4483824,7.14671634 C20.5839231,7.21438766 20.6855787,7.31589463 20.7872342,7.38356595 C22.1087563,8.33096442 22.8109815,9.32835275 23.5564555,10.7494504 C23.6919962,10.9863001 23.6242258,11.1554784 23.4547999,11.3246567 C22.8109815,11.9675342 22.2010483,12.6104117 21.5572298,13.2532893 C21.3200336,13.4901389 21.3200336,13.6593172 21.5233447,13.9300024 C23.0481778,15.8924707 24.5391257,17.8887746 26.0300737,19.8512429 C26.6719781,20.6946197 27.3138826,21.5379965 28.0229548,22.4484428 C27.5841126,23.2140682 27.0796975,23.9372996 26.5173677,24.6104789 C25.4514066,23.1972532 24.1201413,21.4460786 23.1837185,20.1895995 C23.082063,20.2572708 23.0481778,20.2572708 23.082063,20.2572708 C23.0481778,20.3249421 22.9804074,20.3926134 22.9465222,20.4602847 C22.1332779,21.6445328 21.0828373,22.6257669 19.8290856,23.3363158 C18.9141858,23.8438507 19.1852672,23.810015 18.4736784,23.1333018 C17.82986,22.52426 17.1860415,21.8813824 16.5083379,21.2385049 C13.4928492,23.471442 10.5112391,25.704379 7.4618816,27.9711419 Z M29.9942595,14.5809503 C29.9980782,14.7201681 30,14.8598596 30,15 C30,15.0182761 29.9999673,15.0365446 29.999902,15.0548054 C29.9994845,14.9395597 29.9977326,14.8240321 29.9946398,14.7082226 C29.9946398,14.6656667 29.994513,14.6232429 29.9942595,14.5809503 Z" id="icon_ZRX__Combined-Shape" fill="#FFFFFF"></path>
            </g>
        </g>
    </g>
</svg>
